<?xml version="1.0" encoding="utf-8"?>
<svg viewBox="0 0 78 77" xmlns="http://www.w3.org/2000/svg" xmlns:xlink="http://www.w3.org/1999/xlink">
    <style>:root>svg{display:none}:root>svg:target{display:block}</style>

    <svg id="ruler" width="22" height="10" viewBox="0 0 22 10" xmlns="http://www.w3.org/2000/svg">
        <path d="M20.75 0.5H1.25C1.05109 0.5 0.860322 0.579018 0.71967 0.71967C0.579018 0.860322 0.5 1.05109 0.5 1.25V8.75C0.5 8.94891 0.579018 9.13968 0.71967 9.28033C0.860322 9.42098 1.05109 9.5 1.25 9.5H20.75C20.9489 9.5 21.1397 9.42098 21.2803 9.28033C21.421 9.13968 21.5 8.94891 21.5 8.75V1.25C21.5 1.05109 21.421 0.860322 21.2803 0.71967C21.1397 0.579018 20.9489 0.5 20.75 0.5ZM20 8H2V2H5V5H6.5V2H10.25V5H11.75V2H15.5V5H17V2H20V8Z"/>
    </svg>

    <svg id="phone" viewBox="0 0 20 20" xmlns="http://www.w3.org/2000/svg">
        <path d="M17.5003 19.75H17.3728C2.63531 18.9025 0.542808 6.4675 0.250308 2.6725C0.226739 2.37744 0.261624 2.08062 0.352964 1.79906C0.444304 1.5175 0.590303 1.25673 0.782596 1.03169C0.974889 0.80665 1.2097 0.621766 1.47357 0.48763C1.73743 0.353493 2.02518 0.272741 2.32031 0.250001H6.45281C6.75323 0.24971 7.04681 0.339633 7.29553 0.508122C7.54425 0.676611 7.73665 0.915903 7.84781 1.195L8.98781 4C9.09757 4.27266 9.12481 4.57156 9.06614 4.85957C9.00747 5.14758 8.86548 5.412 8.65781 5.62L7.06031 7.2325C7.30985 8.65056 7.98895 9.95775 9.00573 10.9772C10.0225 11.9967 11.3279 12.6792 12.7453 12.9325L14.3728 11.32C14.5839 11.1146 14.8508 10.9759 15.1403 10.9213C15.4297 10.8666 15.7288 10.8983 16.0003 11.0125L18.8278 12.145C19.1027 12.2597 19.3372 12.4536 19.5015 12.702C19.6658 12.9504 19.7524 13.2422 19.7503 13.54V17.5C19.7503 18.0967 19.5133 18.669 19.0913 19.091C18.6693 19.5129 18.097 19.75 17.5003 19.75ZM2.50031 1.75C2.3014 1.75 2.11063 1.82902 1.96998 1.96967C1.82933 2.11032 1.75031 2.30109 1.75031 2.5V2.56C2.09531 7 4.30781 17.5 17.4553 18.25C17.5538 18.2561 17.6526 18.2427 17.7459 18.2105C17.8393 18.1783 17.9253 18.1281 17.9992 18.0626C18.073 17.9971 18.1333 17.9176 18.1763 17.8288C18.2194 17.74 18.2446 17.6436 18.2503 17.545V13.54L15.4228 12.4075L13.2703 14.545L12.9103 14.5C6.38531 13.6825 5.50031 7.1575 5.50031 7.09L5.45531 6.73L7.58531 4.5775L6.46031 1.75H2.50031Z" />
    </svg>

    <svg id="mail" viewBox="0 0 22 16" xmlns="http://www.w3.org/2000/svg">
        <path d="M20 0.5H2C1.60218 0.5 1.22064 0.658035 0.93934 0.93934C0.658035 1.22064 0.5 1.60218 0.5 2V14C0.5 14.3978 0.658035 14.7794 0.93934 15.0607C1.22064 15.342 1.60218 15.5 2 15.5H20C20.3978 15.5 20.7794 15.342 21.0607 15.0607C21.342 14.7794 21.5 14.3978 21.5 14V2C21.5 1.60218 21.342 1.22064 21.0607 0.93934C20.7794 0.658035 20.3978 0.5 20 0.5ZM18.35 2L11 7.085L3.65 2H18.35ZM2 14V2.6825L10.5725 8.615C10.698 8.7021 10.8472 8.74877 11 8.74877C11.1528 8.74877 11.302 8.7021 11.4275 8.615L20 2.6825V14H2Z"/>
    </svg>

    <svg id="item-arrow" width="8" height="5" viewBox="0 0 8 5" fill="none" xmlns="http://www.w3.org/2000/svg">
        <path d="M1 1L4 4L7 1" />
    </svg>

    <svg id="clock" viewBox="0 0 16 16" xmlns="http://www.w3.org/2000/svg">
        <path d="M8 15C6.61553 15 5.26216 14.5895 4.11101 13.8203C2.95987 13.0511 2.06266 11.9579 1.53285 10.6788C1.00303 9.3997 0.86441 7.99224 1.13451 6.63437C1.4046 5.2765 2.07129 4.02922 3.05026 3.05026C4.02922 2.07129 5.2765 1.4046 6.63437 1.13451C7.99224 0.86441 9.3997 1.00303 10.6788 1.53285C11.9579 2.06266 13.0511 2.95987 13.8203 4.11101C14.5895 5.26216 15 6.61553 15 8C15 9.85652 14.2625 11.637 12.9497 12.9497C11.637 14.2625 9.85652 15 8 15ZM8 2C6.81332 2 5.65328 2.3519 4.66658 3.01119C3.67989 3.67047 2.91085 4.60755 2.45673 5.7039C2.0026 6.80026 1.88378 8.00666 2.11529 9.17054C2.3468 10.3344 2.91825 11.4035 3.75736 12.2426C4.59648 13.0818 5.66558 13.6532 6.82946 13.8847C7.99335 14.1162 9.19975 13.9974 10.2961 13.5433C11.3925 13.0892 12.3295 12.3201 12.9888 11.3334C13.6481 10.3467 14 9.18669 14 8C14 6.4087 13.3679 4.88258 12.2426 3.75736C11.1174 2.63214 9.5913 2 8 2Z" />
        <path d="M10.295 11L7.5 8.205V3.5H8.5V7.79L11 10.295L10.295 11Z" />
    </svg>

    <svg id="search" width="21" height="21" viewBox="0 0 21 21" xmlns="http://www.w3.org/2000/svg">
        <path d="M20.7502 19.6886L15.0861 14.0246C16.4471 12.3906 17.1258 10.2948 16.981 8.17314C16.8362 6.05151 15.8789 4.06738 14.3085 2.63353C12.738 1.19967 10.6752 0.426479 8.54918 0.474791C6.42316 0.523103 4.39761 1.3892 2.89389 2.89292C1.39018 4.39663 0.52408 6.42218 0.475768 8.54821C0.427456 10.6742 1.20065 12.737 2.63451 14.3075C4.06836 15.878 6.05248 16.8352 8.17412 16.98C10.2958 17.1249 12.3915 16.4462 14.0255 15.0851L19.6896 20.7492L20.7502 19.6886ZM2.00018 8.7492C2.00018 7.41418 2.39606 6.10913 3.13776 4.9991C3.87946 3.88907 4.93366 3.02391 6.16706 2.51301C7.40047 2.00212 8.75766 1.86845 10.067 2.1289C11.3764 2.38935 12.5791 3.03223 13.5231 3.97623C14.4672 4.92023 15.11 6.12297 15.3705 7.43234C15.6309 8.74171 15.4973 10.0989 14.9864 11.3323C14.4755 12.5657 13.6103 13.6199 12.5003 14.3616C11.3902 15.1033 10.0852 15.4992 8.75018 15.4992C6.96058 15.4972 5.24484 14.7854 3.9794 13.52C2.71396 12.2545 2.00216 10.5388 2.00018 8.7492Z" />
    </svg>

    <svg id="user" width="32" height="32" viewBox="0 0 32 32" xmlns="http://www.w3.org/2000/svg">
        <path d="M16 4C16.9889 4 17.9556 4.29324 18.7779 4.84265C19.6001 5.39206 20.241 6.17295 20.6194 7.08658C20.9978 8.00021 21.0969 9.00555 20.9039 9.97545C20.711 10.9454 20.2348 11.8363 19.5355 12.5355C18.8363 13.2348 17.9454 13.711 16.9755 13.9039C16.0056 14.0969 15.0002 13.9978 14.0866 13.6194C13.173 13.241 12.3921 12.6001 11.8427 11.7779C11.2932 10.9556 11 9.98891 11 9C11 7.67392 11.5268 6.40215 12.4645 5.46447C13.4022 4.52678 14.6739 4 16 4V4ZM16 2C14.6155 2 13.2622 2.41054 12.111 3.17971C10.9599 3.94888 10.0627 5.04213 9.53285 6.32122C9.00303 7.6003 8.86441 9.00777 9.13451 10.3656C9.4046 11.7235 10.0713 12.9708 11.0503 13.9497C12.0292 14.9287 13.2765 15.5954 14.6344 15.8655C15.9922 16.1356 17.3997 15.997 18.6788 15.4672C19.9579 14.9373 21.0511 14.0401 21.8203 12.889C22.5895 11.7378 23 10.3845 23 9C23 7.14348 22.2625 5.36301 20.9497 4.05025C19.637 2.7375 17.8565 2 16 2V2Z" />
        <path d="M26 30H24V25C24 24.3434 23.8707 23.6932 23.6194 23.0866C23.3681 22.48 22.9998 21.9288 22.5355 21.4645C22.0712 21.0002 21.52 20.6319 20.9134 20.3806C20.3068 20.1293 19.6566 20 19 20H13C11.6739 20 10.4021 20.5268 9.46447 21.4645C8.52678 22.4021 8 23.6739 8 25V30H6V25C6 23.1435 6.7375 21.363 8.05025 20.0503C9.36301 18.7375 11.1435 18 13 18H19C20.8565 18 22.637 18.7375 23.9497 20.0503C25.2625 21.363 26 23.1435 26 25V30Z" />
    </svg>

    <svg id="scales" width="32" height="32" viewBox="0 0 32 32" xmlns="http://www.w3.org/2000/svg">
        <path d="M20 16C20 17.3261 20.5268 18.5979 21.4645 19.5355C22.4021 20.4732 23.6739 21 25 21C26.3261 21 27.5979 20.4732 28.5355 19.5355C29.4732 18.5979 30 17.3261 30 16C30 15.8447 29.9639 15.6916 29.8945 15.5527L25.896 7.5562C25.8823 7.52823 25.8671 7.50099 25.8506 7.4746C25.761 7.32955 25.6359 7.2098 25.487 7.12674C25.3381 7.04367 25.1705 7.00004 25 7H18.8218C18.6708 6.58171 18.4292 6.202 18.1142 5.88806C17.7993 5.57412 17.4188 5.33372 17 5.1841V2H15V5.1841C14.5812 5.33372 14.2007 5.57412 13.8858 5.88806C13.5708 6.202 13.3292 6.58171 13.1782 7H7C6.81428 6.99998 6.63223 7.05167 6.47424 7.14929C6.31625 7.24691 6.18857 7.3866 6.1055 7.5527L2.1055 15.5527C2.03608 15.6916 1.99996 15.8447 2 16C2 17.3261 2.52678 18.5979 3.46447 19.5355C4.40215 20.4732 5.67392 21 7 21C8.32608 21 9.59785 20.4732 10.5355 19.5355C11.4732 18.5979 12 17.3261 12 16C12 15.8447 11.9639 15.6916 11.8945 15.5527L8.6182 9H13.1782C13.3292 9.41822 13.5708 9.79786 13.8858 10.1117C14.2008 10.4256 14.5812 10.6659 15 10.8154V28H6V30H26V28H17V10.8159C17.4188 10.6663 17.7993 10.4259 18.1142 10.1119C18.4292 9.798 18.6708 9.41829 18.8218 9H23.3818L20.1055 15.5527C20.0361 15.6916 20 15.8447 20 16ZM7 19C6.38173 18.9979 5.77926 18.8045 5.27523 18.4464C4.7712 18.0884 4.39031 17.5831 4.1848 17H9.8148C9.60934 17.5831 9.22851 18.0883 8.72456 18.4464C8.2206 18.8044 7.61821 18.9978 7 19ZM9.3821 15H4.6179L7 10.2363L9.3821 15ZM16 9C15.8022 9 15.6089 8.94135 15.4444 8.83147C15.28 8.72159 15.1518 8.56541 15.0761 8.38268C15.0004 8.19996 14.9806 7.99889 15.0192 7.80491C15.0578 7.61093 15.153 7.43275 15.2929 7.29289C15.4327 7.15304 15.6109 7.0578 15.8049 7.01921C15.9989 6.98063 16.2 7.00043 16.3827 7.07612C16.5654 7.15181 16.7216 7.27998 16.8315 7.44443C16.9414 7.60888 17 7.80222 17 8C16.9998 8.26514 16.8943 8.51936 16.7068 8.70684C16.5194 8.89433 16.2651 8.99976 16 9ZM25 19C24.3817 18.9979 23.7793 18.8045 23.2752 18.4464C22.7712 18.0884 22.3903 17.5831 22.1848 17H27.8148C27.6093 17.5831 27.2285 18.0883 26.7246 18.4464C26.2206 18.8044 25.6182 18.9978 25 19ZM25 10.2363L27.3821 15H22.6179L25 10.2363Z" />
    </svg>

    <svg id="cart" width="32" height="32" viewBox="0 0 32 32" xmlns="http://www.w3.org/2000/svg">
        <path d="M10 30C11.1046 30 12 29.1046 12 28C12 26.8954 11.1046 26 10 26C8.89543 26 8 26.8954 8 28C8 29.1046 8.89543 30 10 30Z" />
        <path d="M24 30C25.1046 30 26 29.1046 26 28C26 26.8954 25.1046 26 24 26C22.8954 26 22 26.8954 22 28C22 29.1046 22.8954 30 24 30Z" />
        <path d="M28 7.0002H5.82L5 2.8002C4.95325 2.57093 4.82758 2.36531 4.64486 2.21913C4.46214 2.07296 4.23395 1.99549 4 2.0002H0V4.0002H3.18L7 23.2002C7.04675 23.4295 7.17242 23.6351 7.35514 23.7813C7.53786 23.9275 7.76605 24.0049 8 24.0002H26V22.0002H8.82L8 18.0002H26C26.2312 18.0059 26.4571 17.9312 26.6395 17.789C26.8218 17.6468 26.9492 17.4458 27 17.2202L29 8.2202C29.0335 8.07183 29.0327 7.91776 28.9977 7.76974C28.9627 7.62171 28.8944 7.48362 28.798 7.36597C28.7015 7.24833 28.5795 7.15424 28.4413 7.09085C28.303 7.02747 28.1521 6.99647 28 7.0002ZM25.2 16.0002H7.62L6.22 9.0002H26.75L25.2 16.0002Z" />
    </svg>

    <svg id="catalog-btn" width="24" height="24" viewBox="0 0 24 24" xmlns="http://www.w3.org/2000/svg">
        <path d="M13.5 3H10.5V6H13.5V3Z" />
        <path d="M6 3H3V6H6V3Z" />
        <path d="M21 3H18V6H21V3Z" />
        <path d="M13.5 10.5H10.5V13.5H13.5V10.5Z" />
        <path d="M6 10.5H3V13.5H6V10.5Z" />
        <path d="M21 10.5H18V13.5H21V10.5Z" />
        <path d="M13.5 18H10.5V21H13.5V18Z" />
        <path d="M6 18H3V21H6V18Z" />
        <path d="M21 18H18V21H21V18Z" />
    </svg>

    <svg id="big-item-arrow" width="6" height="9" viewBox="0 0 6 9" fill="none" xmlns="http://www.w3.org/2000/svg">
        <path d="M1 0.5L5 4.5L1 8.5" />
    </svg>

    <svg id="youtube" width="15" height="11" viewBox="0 0 15 11" xmlns="http://www.w3.org/2000/svg">
        <path d="M13.9927 1.70944C13.8281 1.09752 13.3455 0.615139 12.7335 0.450365C11.6155 0.144531 7.14339 0.144531 7.14339 0.144531C7.14339 0.144531 2.67142 0.144531 1.55341 0.43877C0.953202 0.603369 0.458856 1.0976 0.294219 1.70944C0 2.82712 0 5.14502 0 5.14502C0 5.14502 0 7.4746 0.294219 8.58059C0.45903 9.19243 0.94143 9.67481 1.5535 9.83958C2.6832 10.1455 7.14357 10.1455 7.14357 10.1455C7.14357 10.1455 11.6155 10.1455 12.7335 9.85126C13.3456 9.68658 13.8281 9.2042 13.9929 8.59236C14.287 7.4746 14.287 5.15679 14.287 5.15679C14.287 5.15679 14.2988 2.82712 13.9927 1.70944ZM5.71956 7.28638V3.00366L9.43837 5.14502L5.71956 7.28638Z" />
    </svg>

    <svg id="facebook" viewBox="0 0 6 13" xmlns="http://www.w3.org/2000/svg">
        <path fill-rule="evenodd" clip-rule="evenodd" d="M1.54741 6.83997V12.7173C1.54741 12.7881 1.61931 12.8589 1.69122 12.8589H3.92029C3.9922 12.8589 4.0641 12.7881 4.0641 12.7173V6.73375H5.68197C5.75388 6.73375 5.82579 6.66294 5.82579 6.59213L5.9696 4.78646C5.9696 4.68024 5.89769 4.60943 5.82579 4.60943H4.0641V3.37025C4.0641 3.087 4.31577 2.83917 4.60339 2.83917H5.82579C5.89769 2.83917 5.9696 2.76835 5.9696 2.69754V0.856465C6.0415 0.785654 5.9696 0.714844 5.86174 0.714844H3.77648C2.55409 0.714844 1.54741 1.70619 1.54741 2.90998V4.64484H0.432873C0.360968 4.64484 0.289062 4.71565 0.289062 4.78646V6.59213C0.289062 6.66294 0.360968 6.73375 0.432873 6.73375H1.54741V6.83997Z" />
    </svg>

    <svg id="instagram" width="13" height="13" viewBox="0 0 13 13" xmlns="http://www.w3.org/2000/svg">
        <path d="M9.98138 2.95369C9.57432 2.95369 9.26902 3.25899 9.26902 3.66605C9.26902 4.07311 9.57432 4.37841 9.98138 4.37841C10.3884 4.37841 10.6937 4.07311 10.6937 3.66605C10.6937 3.25899 10.3884 2.95369 9.98138 2.95369ZM6.82664 3.86958C5.16447 3.86958 3.84152 5.22646 3.84152 6.85471C3.84152 8.48296 5.19839 9.83983 6.82664 9.83983C8.4549 9.83983 9.81177 8.48296 9.81177 6.85471C9.81177 5.22646 8.48882 3.86958 6.82664 3.86958ZM6.82664 8.78825C5.77507 8.78825 4.8931 7.94021 4.8931 6.85471C4.8931 5.80313 5.74114 4.92116 6.82664 4.92116C7.87822 4.92116 8.76019 5.76921 8.76019 6.85471C8.72627 7.94021 7.87822 8.78825 6.82664 8.78825ZM12.8647 4.37841C12.8647 2.34309 11.2365 0.714844 9.20118 0.714844H4.38427C2.34895 0.714844 0.720703 2.34309 0.720703 4.37841V9.19532C0.720703 11.2306 2.34895 12.8589 4.38427 12.8589H9.20118C11.2365 12.8589 12.8647 11.2306 12.8647 9.19532V4.37841ZM11.7114 9.19532C11.7114 10.5861 10.592 11.7055 9.20118 11.7055H4.38427C2.99347 11.7055 1.87405 10.5861 1.87405 9.19532V4.37841C1.87405 2.98761 2.99347 1.86819 4.38427 1.86819H9.20118C10.592 1.86819 11.7114 2.98761 11.7114 4.37841V9.19532Z" />
    </svg>

    <svg id="catalog-arrow" width="11" height="18" viewBox="0 0 11 18" fill="none" xmlns="http://www.w3.org/2000/svg">
        <path d="M1 1L9 9L1 17" stroke-width="2"/>
    </svg>

    <svg id="slider-arrow-next" width="28" height="17" viewBox="0 0 28 17" fill="none" xmlns="http://www.w3.org/2000/svg">
        <path d="M18.7773 1L26.5273 8.75L18.7773 16.5" />
        <path d="M26.0967 8.75L0.263343 8.75" />
    </svg>

    <svg id="slider-arrow-prev" width="28" height="17" viewBox="0 0 28 17" fill="none" xmlns="http://www.w3.org/2000/svg">
        <path d="M8.75 16.5L1 8.75L8.75 0.999998" />
        <path d="M1.43066 8.75L27.264 8.75" />
    </svg>

    <svg id="star" width="12" height="12" viewBox="0 0 12 12" xmlns="http://www.w3.org/2000/svg">
        <path d="M6 0L7.41641 4.58359H12L8.2918 7.41641L9.7082 12L6 9.16718L2.2918 12L3.7082 7.41641L0 4.58359H4.58359L6 0Z" />
    </svg>

    <svg id="btn-cart" width="24" height="24" viewBox="0 0 24 24" xmlns="http://www.w3.org/2000/svg">
        <path d="M7.5 22.5C8.32843 22.5 9 21.8284 9 21C9 20.1716 8.32843 19.5 7.5 19.5C6.67157 19.5 6 20.1716 6 21C6 21.8284 6.67157 22.5 7.5 22.5Z" />
        <path d="M18 22.5C18.8284 22.5 19.5 21.8284 19.5 21C19.5 20.1716 18.8284 19.5 18 19.5C17.1716 19.5 16.5 20.1716 16.5 21C16.5 21.8284 17.1716 22.5 18 22.5Z" />
        <path d="M21 5.25015H4.365L3.75 2.10015C3.71494 1.9282 3.62068 1.77398 3.48364 1.66435C3.3466 1.55472 3.17546 1.49661 3 1.50015H0V3.00015H2.385L5.25 17.4002C5.28506 17.5721 5.37932 17.7263 5.51636 17.836C5.6534 17.9456 5.82454 18.0037 6 18.0002H19.5V16.5002H6.615L6 13.5002H19.5C19.6734 13.5044 19.8429 13.4484 19.9796 13.3418C20.1163 13.2351 20.2119 13.0843 20.25 12.9152L21.75 6.16515C21.7751 6.05387 21.7745 5.93832 21.7483 5.8273C21.722 5.71628 21.6708 5.61271 21.5985 5.52448C21.5261 5.43625 21.4347 5.36568 21.3309 5.31814C21.2272 5.2706 21.114 5.24735 21 5.25015ZM18.9 12.0002H5.715L4.665 6.75015H20.0625L18.9 12.0002Z" />
    </svg>

    <svg id="product-youtube" width="24" height="17" viewBox="0 0 24 17" fill="none" xmlns="http://www.w3.org/2000/svg">
        <path d="M23.5055 2.6288C23.229 1.60086 22.4183 0.790543 21.3903 0.513751C19.5122 0 11.9997 0 11.9997 0C11.9997 0 4.48756 0 2.60948 0.494273C1.60122 0.770773 0.770802 1.601 0.494239 2.6288C0 4.5063 0 8.4 0 8.4C0 8.4 0 12.3133 0.494239 14.1712C0.771095 15.199 1.58145 16.0093 2.60962 16.2861C4.50733 16.8 12 16.8 12 16.8C12 16.8 19.5122 16.8 21.3903 16.3057C22.4185 16.0291 23.229 15.2188 23.5058 14.191C23.9999 12.3133 23.9999 8.41977 23.9999 8.41977C23.9999 8.41977 24.0197 4.5063 23.5055 2.6288ZM9.60793 11.9971V4.80287L15.8549 8.4L9.60793 11.9971Z" fill="#EB001B"/>
    </svg>

    <svg id="quote" width="80" height="80" viewBox="0 0 80 80" fill="none" xmlns="http://www.w3.org/2000/svg">
        <path d="M41.0984 44.5811H30.4733C30.8085 42.3332 31.6057 40.1803 32.814 38.2601C34.0223 36.3398 35.615 34.6945 37.4905 33.429L40.7195 31.2494L38.7352 28.2344L35.5062 30.4139C32.7882 32.2377 30.5593 34.7087 29.0174 37.6078C27.4754 40.5069 26.6681 43.7445 26.667 47.0331V59.1116C26.667 60.075 27.0471 60.999 27.7237 61.6802C28.4003 62.3615 29.318 62.7442 30.2748 62.7442H41.0984C42.0552 62.7442 42.9729 62.3615 43.6495 61.6802C44.3261 60.999 44.7062 60.075 44.7062 59.1116V48.2137C44.7062 47.2503 44.3261 46.3263 43.6495 45.6451C42.9729 44.9638 42.0552 44.5811 41.0984 44.5811Z" fill="#A4AC14"/>
        <path d="M66.196 44.5811H55.5709C55.9062 42.3332 56.7034 40.1803 57.9117 38.2601C59.1199 36.3398 60.7127 34.6945 62.5882 33.429L65.8172 31.2494L63.8509 28.2344L60.6039 30.4139C57.8859 32.2377 55.657 34.7087 54.115 37.6078C52.5731 40.5069 51.7657 43.7445 51.7646 47.0331V59.1116C51.7646 60.075 52.1448 60.999 52.8214 61.6802C53.498 62.3615 54.4156 62.7442 55.3725 62.7442H66.196C67.1529 62.7442 68.0705 62.3615 68.7472 61.6802C69.4238 60.999 69.8039 60.075 69.8039 59.1116V48.2137C69.8039 47.2503 69.4238 46.3263 68.7472 45.6451C68.0705 44.9638 67.1529 44.5811 66.196 44.5811Z" fill="#A4AC14"/>
    </svg>

    <svg id="star-review" width="23" height="22" viewBox="0 0 23 22" xmlns="http://www.w3.org/2000/svg">
        <path d="M11.4127 0L14.1068 8.2918H22.8254L15.7719 13.4164L18.4661 21.7082L11.4127 16.5836L4.35925 21.7082L7.05342 13.4164L0 8.2918H8.71851L11.4127 0Z" />
    </svg>

    <svg id="video-youtube" width="94" height="66" viewBox="0 0 94 66" fill="none" xmlns="http://www.w3.org/2000/svg">
        <path d="M91.924 10.2941C90.8268 6.24509 87.6594 3.08221 83.6047 1.98657C76.3103 0 46.9517 0 46.9517 0C46.9517 0 17.593 0.0601993 10.2986 2.04677C6.24387 3.14241 3.07649 6.30529 1.9793 10.3543C-0.227118 23.2971 -1.08316 43.0183 2.03959 55.4434C3.13678 59.4924 6.30415 62.6553 10.3589 63.7509C17.6533 65.7375 47.0119 65.7375 47.0119 65.7375C47.0119 65.7375 76.3706 65.7375 83.665 63.7509C87.7197 62.6553 90.8871 59.4924 91.9843 55.4434C94.3113 42.4825 95.0287 22.7733 91.924 10.2941Z" fill="#FF0000"/>
        <path d="M37.6074 46.9545L61.9624 32.8679L37.6074 18.7812V46.9545Z" fill="white"/>
    </svg>

    <svg id="telegram" viewBox="0 0 20 18" xmlns="http://www.w3.org/2000/svg">
        <path d="M0.350701 8.37408L4.9488 10.0886L6.74126 15.8557C6.8192 16.2454 7.2868 16.3233 7.59854 16.0895L10.1703 13.9853C10.4041 13.7515 10.7938 13.7515 11.1055 13.9853L15.7036 17.3364C16.0154 17.5702 16.483 17.4144 16.5609 17.0247L19.99 0.658655C20.0679 0.268988 19.6782 -0.120677 19.2886 0.0351905L0.350701 7.36095C-0.1169 7.51681 -0.1169 8.21821 0.350701 8.37408ZM6.50747 9.23135L15.5477 3.69807C15.7036 3.62013 15.8595 3.85394 15.7036 3.93187L8.29993 10.868C8.06613 11.1018 7.83233 11.4135 7.83233 11.8032L7.59854 13.6736C7.59854 13.9074 7.20886 13.9853 7.13093 13.6736L6.19572 10.2445C5.96192 9.85482 6.1178 9.38721 6.50747 9.23135Z" />
    </svg>

    <svg id="viber" viewBox="0 0 21 23" xmlns="http://www.w3.org/2000/svg">
        <path d="M16.2539 0.545914C12.4424 -0.181971 8.48429 -0.181971 4.67277 0.545914C2.98691 0.909856 0.861257 2.94793 0.494764 4.54928C-0.164922 7.67919 -0.164922 10.8819 0.494764 14.0118C0.934555 15.6131 3.06021 17.6512 4.67277 18.0152C4.74607 18.0152 4.81937 18.0879 4.81937 18.1607V22.7464C4.81937 22.9648 5.11257 23.1103 5.25916 22.892L7.45812 20.6355C7.45812 20.6355 9.21728 18.8158 9.51047 18.5247C9.51047 18.5247 9.58377 18.4519 9.65707 18.4519C11.856 18.5247 14.1283 18.3063 16.3272 17.9424C18.0131 17.5784 20.1387 15.5403 20.5052 13.939C21.1649 10.8091 21.1649 7.6064 20.5052 4.47649C20.0654 2.94793 17.9398 0.909856 16.2539 0.545914ZM16.3272 14.2302C15.9607 14.958 15.5209 15.5403 14.788 15.9043C14.5681 15.9771 14.3482 16.0499 14.1283 16.1227C13.8351 16.0499 13.6152 15.9771 13.3953 15.9043C11.0497 14.958 8.85079 13.6478 7.09162 11.7553C6.13874 10.6635 5.33246 9.42611 4.67277 8.11592C4.37958 7.46082 4.08639 6.87851 3.86649 6.22342C3.6466 5.64111 4.01309 5.0588 4.37958 4.62207C4.74607 4.18534 5.18586 3.89418 5.69895 3.67582C6.06545 3.45745 6.43194 3.60303 6.72513 3.89418C7.31152 4.62207 7.89791 5.34995 8.3377 6.15063C8.63089 6.66015 8.55759 7.24245 8.0445 7.6064C7.8979 7.67919 7.82461 7.75197 7.67801 7.89755C7.60471 7.97034 7.45811 8.04313 7.38481 8.1887C7.23822 8.40707 7.23822 8.62544 7.31152 8.8438C7.8979 10.5179 8.99738 11.8281 10.6832 12.556C10.9764 12.7016 11.1963 12.7744 11.5628 12.7744C12.0759 12.7016 12.2958 12.1193 12.6623 11.8281C13.0288 11.537 13.4686 11.537 13.9084 11.7553C14.2749 11.9737 14.6414 12.2649 15.0811 12.556C15.4476 12.8472 15.8141 13.0655 16.1806 13.3567C16.4005 13.5023 16.4738 13.8662 16.3272 14.2302ZM13.2487 8.77101C13.1021 8.77101 13.1754 8.77101 13.2487 8.77101C12.9555 8.77101 12.8822 8.62544 12.8089 8.40707C12.8089 8.26149 12.8089 8.04313 12.7356 7.89755C12.6623 7.6064 12.5157 7.31524 12.2225 7.09688C12.0759 7.02409 11.9293 6.9513 11.7827 6.87851C11.5628 6.80572 11.4162 6.80572 11.1963 6.80572C10.9764 6.73294 10.9031 6.58736 10.9031 6.36899C10.9031 6.22342 11.123 6.07784 11.2696 6.07784C12.4424 6.15063 13.322 6.80572 13.4686 8.1887C13.4686 8.26149 13.4686 8.40707 13.4686 8.47986C13.4686 8.62544 13.3953 8.77101 13.2487 8.77101ZM12.5157 5.56832C12.1492 5.42274 11.7827 5.27717 11.3429 5.20438C11.1963 5.20438 10.9764 5.13159 10.8298 5.13159C10.6099 5.13159 10.4634 4.98601 10.5366 4.76765C10.5366 4.54928 10.6832 4.4037 10.9031 4.47649C11.6361 4.54928 12.2958 4.69486 12.9555 4.98601C14.2749 5.64111 15.0079 6.73293 15.2277 8.1887C15.2277 8.26149 15.2277 8.33428 15.2277 8.40707C15.2277 8.55265 15.2277 8.69822 15.2277 8.91659C15.2277 8.98938 15.2277 9.06217 15.2277 9.13496C15.1545 9.42611 14.6414 9.4989 14.5681 9.13496C14.5681 9.06217 14.4948 8.91659 14.4948 8.8438C14.4948 8.18871 14.3482 7.53361 14.055 6.9513C13.6152 6.2962 13.1021 5.85947 12.5157 5.56832ZM16.4738 9.93563C16.2539 9.93563 16.1073 9.71726 16.1073 9.4989C16.1073 9.06217 16.034 8.62544 15.9607 8.1887C15.6675 5.85947 13.7618 3.96697 11.4895 3.60303C11.123 3.53024 10.7565 3.53024 10.4634 3.45745C10.2435 3.45745 9.95026 3.45745 9.87696 3.1663C9.80366 2.94793 10.0236 2.72957 10.2435 2.72957C10.3168 2.72957 10.3901 2.72957 10.3901 2.72957C13.3953 2.80236 10.5367 2.72957 10.3901 2.72957C13.4686 2.80236 16.034 4.84044 16.5471 7.89755C16.6204 8.40707 16.6937 8.91659 16.6937 9.4989C16.8403 9.71726 16.6937 9.93563 16.4738 9.93563Z" />
    </svg>

    <svg id="whatsapp" viewBox="0 0 21 21" xmlns="http://www.w3.org/2000/svg">
        <path d="M17.9268 3.0625C15.9512 1.09375 13.3171 0 10.5366 0C4.7561 0 0.0731696 4.66667 0.0731696 10.4271C0.0731696 12.25 0.585366 14.0729 1.46341 15.6042L0 21L5.56098 19.5417C7.09756 20.3438 8.78049 20.7813 10.5366 20.7813C16.3171 20.7813 21 16.1146 21 10.3542C20.9268 7.65625 19.9024 5.03125 17.9268 3.0625ZM15.5854 14.1458C15.3659 14.7292 14.3415 15.3125 13.8293 15.3854C13.3902 15.4583 12.8049 15.4583 12.2195 15.3125C11.8537 15.1667 11.3415 15.0208 10.7561 14.7292C8.12195 13.6354 6.43903 11.0104 6.29268 10.7917C6.14634 10.6458 5.19512 9.40625 5.19512 8.09375C5.19512 6.78125 5.85366 6.19792 6.07317 5.90625C6.29268 5.61458 6.58536 5.61458 6.80488 5.61458C6.95122 5.61458 7.17073 5.61458 7.31707 5.61458C7.46341 5.61458 7.68293 5.54167 7.90244 6.05208C8.12195 6.5625 8.63414 7.875 8.70731 7.94792C8.78049 8.09375 8.78049 8.23958 8.70731 8.38542C8.63414 8.53125 8.56097 8.67708 8.41463 8.82292C8.26829 8.96875 8.12195 9.1875 8.04878 9.26042C7.90244 9.40625 7.7561 9.55208 7.90244 9.77083C8.04878 10.0625 8.56097 10.8646 9.36585 11.5937C10.3902 12.4687 11.1951 12.7604 11.4878 12.9063C11.7805 13.0521 11.9268 12.9792 12.0732 12.8333C12.2195 12.6875 12.7317 12.1042 12.878 11.8125C13.0244 11.5208 13.2439 11.5938 13.4634 11.6667C13.6829 11.7396 15 12.3958 15.2195 12.5417C15.5122 12.6875 15.6585 12.7604 15.7317 12.8333C15.8049 13.0521 15.8049 13.5625 15.5854 14.1458Z" />
    </svg>

    <svg id="about-icon-1" viewBox="0 0 76 94" xmlns="http://www.w3.org/2000/svg">
        <path d="M38.0019 93.0802C17.5569 93.0802 0.921875 76.4452 0.921875 56.0002V17.0002C0.921875 16.4032 1.40487 15.9202 2.00187 15.9202C15.0639 15.9202 27.9069 10.5682 37.2399 1.23522C37.6629 0.812219 38.3439 0.812219 38.7669 1.23522C48.0969 10.5682 60.9399 15.9202 74.0019 15.9202C74.5989 15.9202 75.0819 16.4032 75.0819 17.0002V56.0002C75.0819 76.4452 58.4469 93.0802 38.0019 93.0802ZM3.08188 18.0682V56.0002C3.08188 75.2542 18.7479 90.9202 38.0019 90.9202C57.2559 90.9202 72.9219 75.2542 72.9219 56.0002V18.0682C60.0189 17.7892 47.4039 12.5332 38.0019 3.51222C28.5999 12.5332 15.9849 17.7892 3.08188 18.0682ZM54.0819 65.0002H51.9219V60.5002C51.9219 54.2362 47.7849 48.9082 41.6229 47.2432C41.1849 47.1232 40.8729 46.7482 40.8279 46.3012C40.7859 45.8512 41.0259 45.4252 41.4309 45.2272C44.1579 43.9102 45.9189 41.0722 45.9189 38.0002C45.9189 33.6322 42.3669 30.0802 37.9989 30.0802C33.6309 30.0802 30.0789 33.6352 30.0789 38.0002C30.0789 41.0692 31.8399 43.9072 34.5699 45.2272C34.9749 45.4222 35.2179 45.8512 35.1759 46.3012C35.1339 46.7482 34.8159 47.1232 34.3809 47.2432C28.2189 48.9082 24.0789 54.2392 24.0789 60.5002V65.0002H21.9189V60.5002C21.9189 54.0112 25.7439 48.3922 31.6479 45.9022C29.3349 43.9972 27.9219 41.0902 27.9219 38.0002C27.9219 32.4412 32.4429 27.9202 38.0019 27.9202C43.5609 27.9202 48.0819 32.4412 48.0819 38.0002C48.0819 41.0902 46.6689 43.9972 44.3529 45.9022C50.2569 48.3922 54.0819 54.0112 54.0819 60.5002V65.0002Z"/>
    </svg>

    <svg id="about-icon-2" viewBox="0 0 94 94" xmlns="http://www.w3.org/2000/svg">
        <path d="M2.00112 93.0802C1.71912 93.0802 1.44312 92.9692 1.23912 92.7652C0.927125 92.4532 0.837125 91.9792 1.00813 91.5772L10.0081 70.5772C10.0621 70.4512 10.1401 70.3342 10.2391 70.2382L78.3541 2.12022C79.1221 1.34922 80.1481 0.926219 81.2371 0.926219C81.2371 0.926219 81.2371 0.926219 81.2401 0.926219C82.3291 0.926219 83.3551 1.34922 84.1261 2.12022L91.8841 9.87822C93.4711 11.4682 93.4711 14.0542 91.8841 15.6472L23.7631 83.7652C23.6671 83.8612 23.5531 83.9392 23.4241 83.9932L2.42413 92.9932C2.28913 93.0532 2.14512 93.0802 2.00112 93.0802ZM6.41712 84.4402L4.05912 89.9422L9.55812 87.5842L6.41712 84.4402ZM7.33212 82.3042L11.6971 86.6722L21.9211 82.2892V78.0802H17.0011C16.4041 78.0802 15.9211 77.5972 15.9211 77.0002V72.0802H11.7121L7.33212 82.3042ZM18.0811 75.9202H23.0011C23.5981 75.9202 24.0811 76.4032 24.0811 77.0002V80.3932L76.9741 27.5002L66.5011 17.0272L13.6081 69.9202H17.0011C17.5981 69.9202 18.0811 70.4032 18.0811 71.0002V75.9202ZM68.0311 15.5002L78.5011 25.9732L81.4741 23.0002L71.0011 12.5272L68.0311 15.5002ZM72.5311 11.0002L83.0011 21.4732L90.3541 14.1202C91.1011 13.3702 91.1011 12.1522 90.3541 11.4052L82.5961 3.64722C82.2331 3.28422 81.7531 3.08322 81.2401 3.08322C81.2371 3.08322 81.2371 3.08322 81.2371 3.08322C80.7241 3.08322 80.2441 3.28422 79.8841 3.64722L72.5311 11.0002ZM77.0011 93.0802C76.7251 93.0802 76.4461 92.9752 76.2361 92.7652L49.2361 65.7652L50.7631 64.2352L54.4981 67.9732L61.2331 61.2352L62.7631 62.7652L56.0281 69.5002L62.0011 75.4732L65.7361 71.7352L67.2661 73.2652L63.5281 77.0002L69.5011 82.9732L76.2361 76.2352L77.7661 77.7652L71.0281 84.5002L77.0011 90.4732L90.4741 77.0002L64.2361 50.7652L65.7661 49.2382L92.7661 76.2382C93.1891 76.6612 93.1891 77.3452 92.7661 77.7682L77.7661 92.7682C77.5561 92.9752 77.2771 93.0802 77.0011 93.0802ZM25.2631 70.2652L23.7361 68.7352L67.2361 25.2352L68.7661 26.7622L25.2631 70.2652ZM28.2391 44.7622L1.23912 17.7622C0.816125 17.3392 0.816125 16.6582 1.23912 16.2352L16.2391 1.23522C16.6621 0.812219 17.3431 0.812219 17.7661 1.23522L44.7661 28.2352L43.2391 29.7622L17.0011 3.52722L3.52812 17.0002L9.50112 22.9732L16.2391 16.2382L17.7661 17.7652L11.0281 24.5002L17.0011 30.4732L20.7391 26.7382L22.2661 28.2652L18.5281 32.0002L24.5011 37.9732L31.2391 31.2382L32.7661 32.7652L26.0281 39.5002L29.7631 43.2382L28.2391 44.7622Z"/>
    </svg>

    <svg id="about-icon-3" viewBox="0 0 94 92" xmlns="http://www.w3.org/2000/svg">
        <path d="M93.0819 91.9999H90.9219C90.9219 72.7039 76.5909 55.3039 56.8449 50.6239C56.3949 50.5159 56.0619 50.1349 56.0199 49.6729C55.9749 49.2139 56.2329 48.7759 56.6559 48.5869C60.6399 46.8139 64.0659 43.9759 66.5619 40.3849L68.3379 41.6179C66.1629 44.7469 63.3399 47.3509 60.0789 49.2559C79.3569 55.0639 93.0819 72.6199 93.0819 91.9999ZM3.08188 91.9999H0.921875C0.921875 72.6199 14.6439 55.0639 33.9279 49.2559C26.0259 44.6389 21.0549 36.1309 21.0549 26.8609C21.0549 12.5569 32.6919 0.919922 46.9989 0.919922C54.7479 0.919922 62.0289 4.34292 66.9759 10.3099L65.3109 11.6899C60.7809 6.21792 54.1059 3.07992 47.0019 3.07992C33.8859 3.07992 23.2179 13.7479 23.2179 26.8609C23.2179 36.2359 28.7649 44.7649 37.3509 48.5839C37.7739 48.7729 38.0289 49.2109 37.9869 49.6699C37.9449 50.1319 37.6119 50.5129 37.1619 50.6209C17.4129 55.3039 3.08188 72.7039 3.08188 91.9999ZM56.0019 39.0799C53.7519 39.0799 51.9219 37.2499 51.9219 34.9999C51.9219 32.7499 53.7519 30.9199 56.0019 30.9199C57.8649 30.9199 59.4399 32.1739 59.9259 33.8809C65.5179 33.4099 69.9219 28.7089 69.9219 22.9999V16.9999H72.0849V22.9999C72.0849 29.8939 66.7209 35.5609 59.9469 36.0469C59.4819 37.7899 57.8919 39.0799 56.0019 39.0799ZM56.0019 33.0799C54.9429 33.0799 54.0819 33.9409 54.0819 34.9999C54.0819 36.0589 54.9429 36.9199 56.0019 36.9199C57.0609 36.9199 57.9219 36.0589 57.9219 34.9999C57.9219 33.9409 57.0609 33.0799 56.0019 33.0799Z"/>
    </svg>

    <svg id="about-icon-4" viewBox="0 0 76 94" xmlns="http://www.w3.org/2000/svg">
        <path d="M38.0019 93.0802C17.5569 93.0802 0.921875 76.4452 0.921875 56.0002V17.0002C0.921875 16.4032 1.40487 15.9202 2.00187 15.9202C15.0639 15.9202 27.9069 10.5682 37.2399 1.23522C37.6629 0.812219 38.3439 0.812219 38.7669 1.23522C48.0969 10.5682 60.9399 15.9202 74.0019 15.9202C74.5989 15.9202 75.0819 16.4032 75.0819 17.0002V56.0002C75.0819 76.4452 58.4469 93.0802 38.0019 93.0802ZM3.08188 18.0682V56.0002C3.08188 75.2542 18.7479 90.9202 38.0019 90.9202C57.2559 90.9202 72.9219 75.2542 72.9219 56.0002V18.0682C60.0189 17.7892 47.4039 12.5332 38.0019 3.51222C28.5999 12.5332 15.9849 17.7892 3.08188 18.0682ZM54.0819 65.0002H51.9219V60.5002C51.9219 54.2362 47.7849 48.9082 41.6229 47.2432C41.1849 47.1232 40.8729 46.7482 40.8279 46.3012C40.7859 45.8512 41.0259 45.4252 41.4309 45.2272C44.1579 43.9102 45.9189 41.0722 45.9189 38.0002C45.9189 33.6322 42.3669 30.0802 37.9989 30.0802C33.6309 30.0802 30.0789 33.6352 30.0789 38.0002C30.0789 41.0692 31.8399 43.9072 34.5699 45.2272C34.9749 45.4222 35.2179 45.8512 35.1759 46.3012C35.1339 46.7482 34.8159 47.1232 34.3809 47.2432C28.2189 48.9082 24.0789 54.2392 24.0789 60.5002V65.0002H21.9189V60.5002C21.9189 54.0112 25.7439 48.3922 31.6479 45.9022C29.3349 43.9972 27.9219 41.0902 27.9219 38.0002C27.9219 32.4412 32.4429 27.9202 38.0019 27.9202C43.5609 27.9202 48.0819 32.4412 48.0819 38.0002C48.0819 41.0902 46.6689 43.9972 44.3529 45.9022C50.2569 48.3922 54.0819 54.0112 54.0819 60.5002V65.0002Z"/>
    </svg>

    <svg id="load-arrow" viewBox="0 0 16 19" xmlns="http://www.w3.org/2000/svg">
        <path d="M16 7.86207C16 6.3071 15.5308 4.78705 14.6518 3.49414C13.7727 2.20123 12.5233 1.19353 11.0615 0.598468C9.59966 0.00340597 7.99113 -0.152289 6.43928 0.151071C4.88743 0.454431 3.46197 1.20322 2.34315 2.30275C1.22433 3.40228 0.462403 4.80317 0.15372 6.32826C-0.154962 7.85335 0.00346458 9.43415 0.608966 10.8708C1.21447 12.3074 2.23985 13.5352 3.55544 14.3991C4.87103 15.263 6.41775 15.7241 8 15.7241L10.6667 15.7241L10.6667 19L14.6667 15.069L10.6667 11.1379L10.6667 14.4138L8 14.4138C6.68146 14.4138 5.39253 14.0295 4.2962 13.3096C3.19987 12.5897 2.34539 11.5665 1.8408 10.3693C1.33622 9.17214 1.2042 7.8548 1.46143 6.58389C1.71867 5.31298 2.35361 4.14558 3.28596 3.2293C4.21831 2.31303 5.40619 1.68904 6.6994 1.43624C7.99261 1.18344 9.33305 1.31318 10.5512 1.80907C11.7694 2.30495 12.8106 3.1447 13.5431 4.22213C14.2757 5.29955 14.6667 6.56626 14.6667 7.86207L16 7.86207Z" />
    </svg>

    <svg id="at" viewBox="0 0 18 17" xmlns="http://www.w3.org/2000/svg">
        <path d="M14.5808 2.15769C13.0116 0.719232 11.1154 0 8.76153 0C6.3423 0 4.25 0.784616 2.55 2.41923C0.849996 4.05385 0 6.08077 0 8.5C0 10.8538 0.784623 12.8154 2.41924 14.5154C4.05385 16.2154 6.21155 17 9.02309 17C10.6577 17 12.2923 16.6731 13.9269 15.9538C14.45 15.7577 14.7115 15.1038 14.5154 14.5808C14.3192 14.0577 13.6654 13.7962 13.1423 13.9923C11.7692 14.5808 10.3962 14.9077 9.08846 14.9077C6.99615 14.9077 5.36154 14.2538 4.18461 12.9462C3.00769 11.6385 2.41924 10.1346 2.41924 8.43462C2.41924 6.53846 3.07308 4.96923 4.25 3.72692C5.49231 2.48461 6.99615 1.83077 8.82692 1.83077C10.4615 1.83077 11.9 2.35385 13.0769 3.4C14.2538 4.44615 14.7769 5.75385 14.7769 7.32308C14.7769 8.36923 14.5154 9.28462 13.9923 10.0038C13.4692 10.7231 12.9462 11.05 12.3577 11.05C12.0308 11.05 11.9 10.9192 11.9 10.5269C11.9 10.2654 11.9 9.93846 11.9654 9.61154L12.6192 4.31539H10.3962L10.2654 4.83846C9.67693 4.38077 9.08846 4.11923 8.43461 4.11923C7.38846 4.11923 6.47309 4.57692 5.68847 5.42692C4.90385 6.27692 4.57692 7.38846 4.57692 8.69616C4.57692 10.0038 4.90385 11.05 5.62308 11.9C6.27693 12.6846 7.12694 13.0769 8.04232 13.0769C8.89232 13.0769 9.61154 12.75 10.2 12.0308C10.6577 12.6846 11.3115 13.0769 12.2269 13.0769C13.5346 13.0769 14.6462 12.4885 15.6269 11.3769C16.6077 10.2654 17.0654 8.89231 17.0654 7.25769C16.8692 5.29615 16.0846 3.53077 14.5808 2.15769ZM9.41538 10.1346C9.02307 10.6577 8.56539 10.9192 7.97693 10.9192C7.58462 10.9192 7.32309 10.7231 7.06155 10.3308C6.80001 9.93846 6.73463 9.48077 6.73463 8.89231C6.73463 8.17308 6.86539 7.58462 7.19231 7.19231C7.51923 6.73462 7.91155 6.53846 8.36924 6.53846C8.76155 6.53846 9.15385 6.66923 9.48077 7.06154C9.80769 7.38846 9.93847 7.84616 9.93847 8.36923C10.0039 9.02308 9.80769 9.61154 9.41538 10.1346Z"/>
    </svg>

    <svg id="twitter" viewBox="0 0 20 16" xmlns="http://www.w3.org/2000/svg">
        <path d="M19.6 1.89999C18.9 2.19999 18.1 2.4 17.3 2.5C18.1 2 18.8 1.2 19.1 0.300003C18.3 0.800003 17.5 1.1 16.5 1.3C15.8 0.500003 14.7 0 13.6 0C11.4 0 9.59999 1.8 9.59999 4C9.59999 4.3 9.6 4.59999 9.7 4.89999C6.4 4.69999 3.39999 3.1 1.39999 0.699997C1.09999 1.3 0.899994 2 0.899994 2.7C0.899994 4.1 1.6 5.3 2.7 6C2 6 1.39999 5.8 0.899994 5.5C0.899994 7.4 2.29999 9.09999 4.09999 9.39999C3.79999 9.49999 3.4 9.5 3 9.5C2.7 9.5 2.5 9.49999 2.2 9.39999C2.7 11 4.2 12.2 6 12.2C4.6 13.3 2.9 13.9 1 13.9C0.7 13.9 0.4 13.9 0 13.8C1.8 14.9 3.9 15.6 6.2 15.6C13.6 15.6 17.6 9.5 17.6 4.2V3.7C18.4 3.4 19.1 2.69999 19.6 1.89999Z" />
    </svg>

    <svg id="cat-slider-next" viewBox="0 0 9 14" fill="none" xmlns="http://www.w3.org/2000/svg">
        <path d="M1.5 13L7.5 7L1.5 0.999999" stroke-width="2"/>
    </svg>

    <svg id="cat-slider-prev" viewBox="0 0 9 14" fill="none" xmlns="http://www.w3.org/2000/svg">
        <path d="M8 1L2 7L8 13" stroke-width="2"/>
    </svg>

    <svg id="check" viewBox="0 0 12 9" fill="none" xmlns="http://www.w3.org/2000/svg">
        <path d="M1 4L4.5 7.5L11 1" />
    </svg>

    <svg id="banner-user" width="56" height="55" viewBox="0 0 56 55" fill="none" xmlns="http://www.w3.org/2000/svg">
        <path d="M54.8801 54.2491H53.6201C53.6201 42.9931 45.2604 32.8431 33.7419 30.1131C33.4794 30.0501 33.2851 29.8279 33.2606 29.5584C33.2344 29.2906 33.3849 29.0351 33.6316 28.9249C35.9556 27.8906 37.9541 26.2351 39.4101 24.1404L40.4461 24.8596C39.1774 26.6849 37.5306 28.2039 35.6284 29.3151C46.8739 32.7031 54.8801 42.9441 54.8801 54.2491ZM2.38012 54.2491H1.12012C1.12012 42.9441 9.12462 32.7031 20.3736 29.3151C15.7641 26.6219 12.8644 21.6589 12.8644 16.2514C12.8644 7.90739 19.6526 1.11914 27.9984 1.11914C32.5186 1.11914 36.7659 3.11589 39.6516 6.59664L38.6804 7.40164C36.0379 4.20964 32.1441 2.37914 28.0001 2.37914C20.3491 2.37914 14.1261 8.60214 14.1261 16.2514C14.1261 21.7201 17.3619 26.6954 22.3704 28.9231C22.6171 29.0334 22.7659 29.2889 22.7414 29.5566C22.7169 29.8261 22.5226 30.0484 22.2601 30.1114C10.7399 32.8431 2.38012 42.9931 2.38012 54.2491ZM33.2501 23.3791C31.9376 23.3791 30.8701 22.3116 30.8701 20.9991C30.8701 19.6866 31.9376 18.6191 33.2501 18.6191C34.3369 18.6191 35.2556 19.3506 35.5391 20.3464C38.8011 20.0716 41.3701 17.3294 41.3701 13.9991V10.4991H42.6319V13.9991C42.6319 18.0206 39.5029 21.3264 35.5514 21.6099C35.2801 22.6266 34.3526 23.3791 33.2501 23.3791ZM33.2501 19.8791C32.6324 19.8791 32.1301 20.3814 32.1301 20.9991C32.1301 21.6169 32.6324 22.1191 33.2501 22.1191C33.8679 22.1191 34.3701 21.6169 34.3701 20.9991C34.3701 20.3814 33.8679 19.8791 33.2501 19.8791Z" fill="white" stroke="white"/>
    </svg>
</svg>