<?xml version="1.0" encoding="utf-8"?>
<svg viewBox="0 0 78 77" xmlns="http://www.w3.org/2000/svg" xmlns:xlink="http://www.w3.org/1999/xlink">
    <style>:root>svg{display:none}:root>svg:target{display:block}</style>

    <svg id="ruler" viewBox="0 0 22 10" xmlns="http://www.w3.org/2000/svg">
        <path d="M20.75 0.5H1.25C1.05109 0.5 0.860322 0.579018 0.71967 0.71967C0.579018 0.860322 0.5 1.05109 0.5 1.25V8.75C0.5 8.94891 0.579018 9.13968 0.71967 9.28033C0.860322 9.42098 1.05109 9.5 1.25 9.5H20.75C20.9489 9.5 21.1397 9.42098 21.2803 9.28033C21.421 9.13968 21.5 8.94891 21.5 8.75V1.25C21.5 1.05109 21.421 0.860322 21.2803 0.71967C21.1397 0.579018 20.9489 0.5 20.75 0.5ZM20 8H2V2H5V5H6.5V2H10.25V5H11.75V2H15.5V5H17V2H20V8Z"/>
    </svg>

    <svg id="phone" viewBox="0 0 20 20" xmlns="http://www.w3.org/2000/svg">
        <path d="M17.5003 19.75H17.3728C2.63531 18.9025 0.542808 6.4675 0.250308 2.6725C0.226739 2.37744 0.261624 2.08062 0.352964 1.79906C0.444304 1.5175 0.590303 1.25673 0.782596 1.03169C0.974889 0.80665 1.2097 0.621766 1.47357 0.48763C1.73743 0.353493 2.02518 0.272741 2.32031 0.250001H6.45281C6.75323 0.24971 7.04681 0.339633 7.29553 0.508122C7.54425 0.676611 7.73665 0.915903 7.84781 1.195L8.98781 4C9.09757 4.27266 9.12481 4.57156 9.06614 4.85957C9.00747 5.14758 8.86548 5.412 8.65781 5.62L7.06031 7.2325C7.30985 8.65056 7.98895 9.95775 9.00573 10.9772C10.0225 11.9967 11.3279 12.6792 12.7453 12.9325L14.3728 11.32C14.5839 11.1146 14.8508 10.9759 15.1403 10.9213C15.4297 10.8666 15.7288 10.8983 16.0003 11.0125L18.8278 12.145C19.1027 12.2597 19.3372 12.4536 19.5015 12.702C19.6658 12.9504 19.7524 13.2422 19.7503 13.54V17.5C19.7503 18.0967 19.5133 18.669 19.0913 19.091C18.6693 19.5129 18.097 19.75 17.5003 19.75ZM2.50031 1.75C2.3014 1.75 2.11063 1.82902 1.96998 1.96967C1.82933 2.11032 1.75031 2.30109 1.75031 2.5V2.56C2.09531 7 4.30781 17.5 17.4553 18.25C17.5538 18.2561 17.6526 18.2427 17.7459 18.2105C17.8393 18.1783 17.9253 18.1281 17.9992 18.0626C18.073 17.9971 18.1333 17.9176 18.1763 17.8288C18.2194 17.74 18.2446 17.6436 18.2503 17.545V13.54L15.4228 12.4075L13.2703 14.545L12.9103 14.5C6.38531 13.6825 5.50031 7.1575 5.50031 7.09L5.45531 6.73L7.58531 4.5775L6.46031 1.75H2.50031Z" />
    </svg>

    <svg id="mail" viewBox="0 0 22 16" xmlns="http://www.w3.org/2000/svg">
        <path d="M20 0.5H2C1.60218 0.5 1.22064 0.658035 0.93934 0.93934C0.658035 1.22064 0.5 1.60218 0.5 2V14C0.5 14.3978 0.658035 14.7794 0.93934 15.0607C1.22064 15.342 1.60218 15.5 2 15.5H20C20.3978 15.5 20.7794 15.342 21.0607 15.0607C21.342 14.7794 21.5 14.3978 21.5 14V2C21.5 1.60218 21.342 1.22064 21.0607 0.93934C20.7794 0.658035 20.3978 0.5 20 0.5ZM18.35 2L11 7.085L3.65 2H18.35ZM2 14V2.6825L10.5725 8.615C10.698 8.7021 10.8472 8.74877 11 8.74877C11.1528 8.74877 11.302 8.7021 11.4275 8.615L20 2.6825V14H2Z"/>
    </svg>

    <svg id="item-arrow" width="8" height="5" viewBox="0 0 8 5" fill="none" xmlns="http://www.w3.org/2000/svg">
        <path d="M1 1L4 4L7 1" />
    </svg>

    <svg id="clock" viewBox="0 0 16 16" xmlns="http://www.w3.org/2000/svg">
        <path d="M8 15C6.61553 15 5.26216 14.5895 4.11101 13.8203C2.95987 13.0511 2.06266 11.9579 1.53285 10.6788C1.00303 9.3997 0.86441 7.99224 1.13451 6.63437C1.4046 5.2765 2.07129 4.02922 3.05026 3.05026C4.02922 2.07129 5.2765 1.4046 6.63437 1.13451C7.99224 0.86441 9.3997 1.00303 10.6788 1.53285C11.9579 2.06266 13.0511 2.95987 13.8203 4.11101C14.5895 5.26216 15 6.61553 15 8C15 9.85652 14.2625 11.637 12.9497 12.9497C11.637 14.2625 9.85652 15 8 15ZM8 2C6.81332 2 5.65328 2.3519 4.66658 3.01119C3.67989 3.67047 2.91085 4.60755 2.45673 5.7039C2.0026 6.80026 1.88378 8.00666 2.11529 9.17054C2.3468 10.3344 2.91825 11.4035 3.75736 12.2426C4.59648 13.0818 5.66558 13.6532 6.82946 13.8847C7.99335 14.1162 9.19975 13.9974 10.2961 13.5433C11.3925 13.0892 12.3295 12.3201 12.9888 11.3334C13.6481 10.3467 14 9.18669 14 8C14 6.4087 13.3679 4.88258 12.2426 3.75736C11.1174 2.63214 9.5913 2 8 2Z" />
        <path d="M10.295 11L7.5 8.205V3.5H8.5V7.79L11 10.295L10.295 11Z" />
    </svg>

    <svg id="search" width="21" height="21" viewBox="0 0 21 21" xmlns="http://www.w3.org/2000/svg">
        <path d="M20.7502 19.6886L15.0861 14.0246C16.4471 12.3906 17.1258 10.2948 16.981 8.17314C16.8362 6.05151 15.8789 4.06738 14.3085 2.63353C12.738 1.19967 10.6752 0.426479 8.54918 0.474791C6.42316 0.523103 4.39761 1.3892 2.89389 2.89292C1.39018 4.39663 0.52408 6.42218 0.475768 8.54821C0.427456 10.6742 1.20065 12.737 2.63451 14.3075C4.06836 15.878 6.05248 16.8352 8.17412 16.98C10.2958 17.1249 12.3915 16.4462 14.0255 15.0851L19.6896 20.7492L20.7502 19.6886ZM2.00018 8.7492C2.00018 7.41418 2.39606 6.10913 3.13776 4.9991C3.87946 3.88907 4.93366 3.02391 6.16706 2.51301C7.40047 2.00212 8.75766 1.86845 10.067 2.1289C11.3764 2.38935 12.5791 3.03223 13.5231 3.97623C14.4672 4.92023 15.11 6.12297 15.3705 7.43234C15.6309 8.74171 15.4973 10.0989 14.9864 11.3323C14.4755 12.5657 13.6103 13.6199 12.5003 14.3616C11.3902 15.1033 10.0852 15.4992 8.75018 15.4992C6.96058 15.4972 5.24484 14.7854 3.9794 13.52C2.71396 12.2545 2.00216 10.5388 2.00018 8.7492Z" />
    </svg>

    <svg id="user" viewBox="0 0 32 32" xmlns="http://www.w3.org/2000/svg">
        <path d="M16 4C16.9889 4 17.9556 4.29324 18.7779 4.84265C19.6001 5.39206 20.241 6.17295 20.6194 7.08658C20.9978 8.00021 21.0969 9.00555 20.9039 9.97545C20.711 10.9454 20.2348 11.8363 19.5355 12.5355C18.8363 13.2348 17.9454 13.711 16.9755 13.9039C16.0056 14.0969 15.0002 13.9978 14.0866 13.6194C13.173 13.241 12.3921 12.6001 11.8427 11.7779C11.2932 10.9556 11 9.98891 11 9C11 7.67392 11.5268 6.40215 12.4645 5.46447C13.4022 4.52678 14.6739 4 16 4V4ZM16 2C14.6155 2 13.2622 2.41054 12.111 3.17971C10.9599 3.94888 10.0627 5.04213 9.53285 6.32122C9.00303 7.6003 8.86441 9.00777 9.13451 10.3656C9.4046 11.7235 10.0713 12.9708 11.0503 13.9497C12.0292 14.9287 13.2765 15.5954 14.6344 15.8655C15.9922 16.1356 17.3997 15.997 18.6788 15.4672C19.9579 14.9373 21.0511 14.0401 21.8203 12.889C22.5895 11.7378 23 10.3845 23 9C23 7.14348 22.2625 5.36301 20.9497 4.05025C19.637 2.7375 17.8565 2 16 2V2Z" />
        <path d="M26 30H24V25C24 24.3434 23.8707 23.6932 23.6194 23.0866C23.3681 22.48 22.9998 21.9288 22.5355 21.4645C22.0712 21.0002 21.52 20.6319 20.9134 20.3806C20.3068 20.1293 19.6566 20 19 20H13C11.6739 20 10.4021 20.5268 9.46447 21.4645C8.52678 22.4021 8 23.6739 8 25V30H6V25C6 23.1435 6.7375 21.363 8.05025 20.0503C9.36301 18.7375 11.1435 18 13 18H19C20.8565 18 22.637 18.7375 23.9497 20.0503C25.2625 21.363 26 23.1435 26 25V30Z" />
    </svg>

    <svg id="scales" viewBox="0 0 32 32" xmlns="http://www.w3.org/2000/svg">
        <path d="M20 16C20 17.3261 20.5268 18.5979 21.4645 19.5355C22.4021 20.4732 23.6739 21 25 21C26.3261 21 27.5979 20.4732 28.5355 19.5355C29.4732 18.5979 30 17.3261 30 16C30 15.8447 29.9639 15.6916 29.8945 15.5527L25.896 7.5562C25.8823 7.52823 25.8671 7.50099 25.8506 7.4746C25.761 7.32955 25.6359 7.2098 25.487 7.12674C25.3381 7.04367 25.1705 7.00004 25 7H18.8218C18.6708 6.58171 18.4292 6.202 18.1142 5.88806C17.7993 5.57412 17.4188 5.33372 17 5.1841V2H15V5.1841C14.5812 5.33372 14.2007 5.57412 13.8858 5.88806C13.5708 6.202 13.3292 6.58171 13.1782 7H7C6.81428 6.99998 6.63223 7.05167 6.47424 7.14929C6.31625 7.24691 6.18857 7.3866 6.1055 7.5527L2.1055 15.5527C2.03608 15.6916 1.99996 15.8447 2 16C2 17.3261 2.52678 18.5979 3.46447 19.5355C4.40215 20.4732 5.67392 21 7 21C8.32608 21 9.59785 20.4732 10.5355 19.5355C11.4732 18.5979 12 17.3261 12 16C12 15.8447 11.9639 15.6916 11.8945 15.5527L8.6182 9H13.1782C13.3292 9.41822 13.5708 9.79786 13.8858 10.1117C14.2008 10.4256 14.5812 10.6659 15 10.8154V28H6V30H26V28H17V10.8159C17.4188 10.6663 17.7993 10.4259 18.1142 10.1119C18.4292 9.798 18.6708 9.41829 18.8218 9H23.3818L20.1055 15.5527C20.0361 15.6916 20 15.8447 20 16ZM7 19C6.38173 18.9979 5.77926 18.8045 5.27523 18.4464C4.7712 18.0884 4.39031 17.5831 4.1848 17H9.8148C9.60934 17.5831 9.22851 18.0883 8.72456 18.4464C8.2206 18.8044 7.61821 18.9978 7 19ZM9.3821 15H4.6179L7 10.2363L9.3821 15ZM16 9C15.8022 9 15.6089 8.94135 15.4444 8.83147C15.28 8.72159 15.1518 8.56541 15.0761 8.38268C15.0004 8.19996 14.9806 7.99889 15.0192 7.80491C15.0578 7.61093 15.153 7.43275 15.2929 7.29289C15.4327 7.15304 15.6109 7.0578 15.8049 7.01921C15.9989 6.98063 16.2 7.00043 16.3827 7.07612C16.5654 7.15181 16.7216 7.27998 16.8315 7.44443C16.9414 7.60888 17 7.80222 17 8C16.9998 8.26514 16.8943 8.51936 16.7068 8.70684C16.5194 8.89433 16.2651 8.99976 16 9ZM25 19C24.3817 18.9979 23.7793 18.8045 23.2752 18.4464C22.7712 18.0884 22.3903 17.5831 22.1848 17H27.8148C27.6093 17.5831 27.2285 18.0883 26.7246 18.4464C26.2206 18.8044 25.6182 18.9978 25 19ZM25 10.2363L27.3821 15H22.6179L25 10.2363Z" />
    </svg>

    <svg id="cart" viewBox="0 0 32 32" xmlns="http://www.w3.org/2000/svg">
        <path d="M10 30C11.1046 30 12 29.1046 12 28C12 26.8954 11.1046 26 10 26C8.89543 26 8 26.8954 8 28C8 29.1046 8.89543 30 10 30Z" />
        <path d="M24 30C25.1046 30 26 29.1046 26 28C26 26.8954 25.1046 26 24 26C22.8954 26 22 26.8954 22 28C22 29.1046 22.8954 30 24 30Z" />
        <path d="M28 7.0002H5.82L5 2.8002C4.95325 2.57093 4.82758 2.36531 4.64486 2.21913C4.46214 2.07296 4.23395 1.99549 4 2.0002H0V4.0002H3.18L7 23.2002C7.04675 23.4295 7.17242 23.6351 7.35514 23.7813C7.53786 23.9275 7.76605 24.0049 8 24.0002H26V22.0002H8.82L8 18.0002H26C26.2312 18.0059 26.4571 17.9312 26.6395 17.789C26.8218 17.6468 26.9492 17.4458 27 17.2202L29 8.2202C29.0335 8.07183 29.0327 7.91776 28.9977 7.76974C28.9627 7.62171 28.8944 7.48362 28.798 7.36597C28.7015 7.24833 28.5795 7.15424 28.4413 7.09085C28.303 7.02747 28.1521 6.99647 28 7.0002ZM25.2 16.0002H7.62L6.22 9.0002H26.75L25.2 16.0002Z" />
    </svg>

    <svg id="catalog-btn" width="24" height="24" viewBox="0 0 24 24" xmlns="http://www.w3.org/2000/svg">
        <path d="M13.5 3H10.5V6H13.5V3Z" />
        <path d="M6 3H3V6H6V3Z" />
        <path d="M21 3H18V6H21V3Z" />
        <path d="M13.5 10.5H10.5V13.5H13.5V10.5Z" />
        <path d="M6 10.5H3V13.5H6V10.5Z" />
        <path d="M21 10.5H18V13.5H21V10.5Z" />
        <path d="M13.5 18H10.5V21H13.5V18Z" />
        <path d="M6 18H3V21H6V18Z" />
        <path d="M21 18H18V21H21V18Z" />
    </svg>

    <svg id="big-item-arrow" viewBox="0 0 6 9" fill="none" xmlns="http://www.w3.org/2000/svg">
        <path d="M1 0.5L5 4.5L1 8.5" />
    </svg>

    <svg id="youtube" viewBox="0 0 15 11" xmlns="http://www.w3.org/2000/svg">
        <path d="M13.9927 1.70944C13.8281 1.09752 13.3455 0.615139 12.7335 0.450365C11.6155 0.144531 7.14339 0.144531 7.14339 0.144531C7.14339 0.144531 2.67142 0.144531 1.55341 0.43877C0.953202 0.603369 0.458856 1.0976 0.294219 1.70944C0 2.82712 0 5.14502 0 5.14502C0 5.14502 0 7.4746 0.294219 8.58059C0.45903 9.19243 0.94143 9.67481 1.5535 9.83958C2.6832 10.1455 7.14357 10.1455 7.14357 10.1455C7.14357 10.1455 11.6155 10.1455 12.7335 9.85126C13.3456 9.68658 13.8281 9.2042 13.9929 8.59236C14.287 7.4746 14.287 5.15679 14.287 5.15679C14.287 5.15679 14.2988 2.82712 13.9927 1.70944ZM5.71956 7.28638V3.00366L9.43837 5.14502L5.71956 7.28638Z" />
    </svg>

    <svg id="facebook" viewBox="0 0 6 13" xmlns="http://www.w3.org/2000/svg">
        <path fill-rule="evenodd" clip-rule="evenodd" d="M1.54741 6.83997V12.7173C1.54741 12.7881 1.61931 12.8589 1.69122 12.8589H3.92029C3.9922 12.8589 4.0641 12.7881 4.0641 12.7173V6.73375H5.68197C5.75388 6.73375 5.82579 6.66294 5.82579 6.59213L5.9696 4.78646C5.9696 4.68024 5.89769 4.60943 5.82579 4.60943H4.0641V3.37025C4.0641 3.087 4.31577 2.83917 4.60339 2.83917H5.82579C5.89769 2.83917 5.9696 2.76835 5.9696 2.69754V0.856465C6.0415 0.785654 5.9696 0.714844 5.86174 0.714844H3.77648C2.55409 0.714844 1.54741 1.70619 1.54741 2.90998V4.64484H0.432873C0.360968 4.64484 0.289062 4.71565 0.289062 4.78646V6.59213C0.289062 6.66294 0.360968 6.73375 0.432873 6.73375H1.54741V6.83997Z" />
    </svg>

    <svg id="instagram" viewBox="0 0 13 13" xmlns="http://www.w3.org/2000/svg">
        <path d="M9.98138 2.95369C9.57432 2.95369 9.26902 3.25899 9.26902 3.66605C9.26902 4.07311 9.57432 4.37841 9.98138 4.37841C10.3884 4.37841 10.6937 4.07311 10.6937 3.66605C10.6937 3.25899 10.3884 2.95369 9.98138 2.95369ZM6.82664 3.86958C5.16447 3.86958 3.84152 5.22646 3.84152 6.85471C3.84152 8.48296 5.19839 9.83983 6.82664 9.83983C8.4549 9.83983 9.81177 8.48296 9.81177 6.85471C9.81177 5.22646 8.48882 3.86958 6.82664 3.86958ZM6.82664 8.78825C5.77507 8.78825 4.8931 7.94021 4.8931 6.85471C4.8931 5.80313 5.74114 4.92116 6.82664 4.92116C7.87822 4.92116 8.76019 5.76921 8.76019 6.85471C8.72627 7.94021 7.87822 8.78825 6.82664 8.78825ZM12.8647 4.37841C12.8647 2.34309 11.2365 0.714844 9.20118 0.714844H4.38427C2.34895 0.714844 0.720703 2.34309 0.720703 4.37841V9.19532C0.720703 11.2306 2.34895 12.8589 4.38427 12.8589H9.20118C11.2365 12.8589 12.8647 11.2306 12.8647 9.19532V4.37841ZM11.7114 9.19532C11.7114 10.5861 10.592 11.7055 9.20118 11.7055H4.38427C2.99347 11.7055 1.87405 10.5861 1.87405 9.19532V4.37841C1.87405 2.98761 2.99347 1.86819 4.38427 1.86819H9.20118C10.592 1.86819 11.7114 2.98761 11.7114 4.37841V9.19532Z" />
    </svg>

    <svg id="catalog-arrow" viewBox="0 0 11 18" fill="none" xmlns="http://www.w3.org/2000/svg">
        <path d="M1 1L9 9L1 17" stroke-width="2"/>
    </svg>

    <svg id="slider-arrow-next" width="28" height="17" viewBox="0 0 28 17" fill="none" xmlns="http://www.w3.org/2000/svg">
        <path d="M18.7773 1L26.5273 8.75L18.7773 16.5" />
        <path d="M26.0967 8.75L0.263343 8.75" />
    </svg>

    <svg id="slider-arrow-prev" width="28" height="17" viewBox="0 0 28 17" fill="none" xmlns="http://www.w3.org/2000/svg">
        <path d="M8.75 16.5L1 8.75L8.75 0.999998" />
        <path d="M1.43066 8.75L27.264 8.75" />
    </svg>

    <svg id="star" width="12" height="12" viewBox="0 0 12 12" xmlns="http://www.w3.org/2000/svg">
        <path d="M6 0L7.41641 4.58359H12L8.2918 7.41641L9.7082 12L6 9.16718L2.2918 12L3.7082 7.41641L0 4.58359H4.58359L6 0Z" />
    </svg>

    <svg id="btn-cart" width="24" height="24" viewBox="0 0 24 24" xmlns="http://www.w3.org/2000/svg">
        <path d="M7.5 22.5C8.32843 22.5 9 21.8284 9 21C9 20.1716 8.32843 19.5 7.5 19.5C6.67157 19.5 6 20.1716 6 21C6 21.8284 6.67157 22.5 7.5 22.5Z" />
        <path d="M18 22.5C18.8284 22.5 19.5 21.8284 19.5 21C19.5 20.1716 18.8284 19.5 18 19.5C17.1716 19.5 16.5 20.1716 16.5 21C16.5 21.8284 17.1716 22.5 18 22.5Z" />
        <path d="M21 5.25015H4.365L3.75 2.10015C3.71494 1.9282 3.62068 1.77398 3.48364 1.66435C3.3466 1.55472 3.17546 1.49661 3 1.50015H0V3.00015H2.385L5.25 17.4002C5.28506 17.5721 5.37932 17.7263 5.51636 17.836C5.6534 17.9456 5.82454 18.0037 6 18.0002H19.5V16.5002H6.615L6 13.5002H19.5C19.6734 13.5044 19.8429 13.4484 19.9796 13.3418C20.1163 13.2351 20.2119 13.0843 20.25 12.9152L21.75 6.16515C21.7751 6.05387 21.7745 5.93832 21.7483 5.8273C21.722 5.71628 21.6708 5.61271 21.5985 5.52448C21.5261 5.43625 21.4347 5.36568 21.3309 5.31814C21.2272 5.2706 21.114 5.24735 21 5.25015ZM18.9 12.0002H5.715L4.665 6.75015H20.0625L18.9 12.0002Z" />
    </svg>

    <svg id="product-youtube" width="24" height="17" viewBox="0 0 24 17" fill="none" xmlns="http://www.w3.org/2000/svg">
        <path d="M23.5055 2.6288C23.229 1.60086 22.4183 0.790543 21.3903 0.513751C19.5122 0 11.9997 0 11.9997 0C11.9997 0 4.48756 0 2.60948 0.494273C1.60122 0.770773 0.770802 1.601 0.494239 2.6288C0 4.5063 0 8.4 0 8.4C0 8.4 0 12.3133 0.494239 14.1712C0.771095 15.199 1.58145 16.0093 2.60962 16.2861C4.50733 16.8 12 16.8 12 16.8C12 16.8 19.5122 16.8 21.3903 16.3057C22.4185 16.0291 23.229 15.2188 23.5058 14.191C23.9999 12.3133 23.9999 8.41977 23.9999 8.41977C23.9999 8.41977 24.0197 4.5063 23.5055 2.6288ZM9.60793 11.9971V4.80287L15.8549 8.4L9.60793 11.9971Z" fill="#EB001B"/>
    </svg>

    <svg id="quote" width="80" height="80" viewBox="0 0 80 80" fill="none" xmlns="http://www.w3.org/2000/svg">
        <path d="M41.0984 44.5811H30.4733C30.8085 42.3332 31.6057 40.1803 32.814 38.2601C34.0223 36.3398 35.615 34.6945 37.4905 33.429L40.7195 31.2494L38.7352 28.2344L35.5062 30.4139C32.7882 32.2377 30.5593 34.7087 29.0174 37.6078C27.4754 40.5069 26.6681 43.7445 26.667 47.0331V59.1116C26.667 60.075 27.0471 60.999 27.7237 61.6802C28.4003 62.3615 29.318 62.7442 30.2748 62.7442H41.0984C42.0552 62.7442 42.9729 62.3615 43.6495 61.6802C44.3261 60.999 44.7062 60.075 44.7062 59.1116V48.2137C44.7062 47.2503 44.3261 46.3263 43.6495 45.6451C42.9729 44.9638 42.0552 44.5811 41.0984 44.5811Z" fill="#A4AC14"/>
        <path d="M66.196 44.5811H55.5709C55.9062 42.3332 56.7034 40.1803 57.9117 38.2601C59.1199 36.3398 60.7127 34.6945 62.5882 33.429L65.8172 31.2494L63.8509 28.2344L60.6039 30.4139C57.8859 32.2377 55.657 34.7087 54.115 37.6078C52.5731 40.5069 51.7657 43.7445 51.7646 47.0331V59.1116C51.7646 60.075 52.1448 60.999 52.8214 61.6802C53.498 62.3615 54.4156 62.7442 55.3725 62.7442H66.196C67.1529 62.7442 68.0705 62.3615 68.7472 61.6802C69.4238 60.999 69.8039 60.075 69.8039 59.1116V48.2137C69.8039 47.2503 69.4238 46.3263 68.7472 45.6451C68.0705 44.9638 67.1529 44.5811 66.196 44.5811Z" fill="#A4AC14"/>
    </svg>

    <svg id="star-review" viewBox="0 0 23 22" xmlns="http://www.w3.org/2000/svg">
        <path d="M11.4127 0L14.1068 8.2918H22.8254L15.7719 13.4164L18.4661 21.7082L11.4127 16.5836L4.35925 21.7082L7.05342 13.4164L0 8.2918H8.71851L11.4127 0Z" />
    </svg>

    <svg id="video-youtube" viewBox="0 0 94 66" fill="none" xmlns="http://www.w3.org/2000/svg">
        <path d="M91.924 10.2941C90.8268 6.24509 87.6594 3.08221 83.6047 1.98657C76.3103 0 46.9517 0 46.9517 0C46.9517 0 17.593 0.0601993 10.2986 2.04677C6.24387 3.14241 3.07649 6.30529 1.9793 10.3543C-0.227118 23.2971 -1.08316 43.0183 2.03959 55.4434C3.13678 59.4924 6.30415 62.6553 10.3589 63.7509C17.6533 65.7375 47.0119 65.7375 47.0119 65.7375C47.0119 65.7375 76.3706 65.7375 83.665 63.7509C87.7197 62.6553 90.8871 59.4924 91.9843 55.4434C94.3113 42.4825 95.0287 22.7733 91.924 10.2941Z" fill="#FF0000"/>
        <path d="M37.6074 46.9545L61.9624 32.8679L37.6074 18.7812V46.9545Z" fill="white"/>
    </svg>

    <svg id="telegram" viewBox="0 0 20 18" xmlns="http://www.w3.org/2000/svg">
        <path d="M0.350701 8.37408L4.9488 10.0886L6.74126 15.8557C6.8192 16.2454 7.2868 16.3233 7.59854 16.0895L10.1703 13.9853C10.4041 13.7515 10.7938 13.7515 11.1055 13.9853L15.7036 17.3364C16.0154 17.5702 16.483 17.4144 16.5609 17.0247L19.99 0.658655C20.0679 0.268988 19.6782 -0.120677 19.2886 0.0351905L0.350701 7.36095C-0.1169 7.51681 -0.1169 8.21821 0.350701 8.37408ZM6.50747 9.23135L15.5477 3.69807C15.7036 3.62013 15.8595 3.85394 15.7036 3.93187L8.29993 10.868C8.06613 11.1018 7.83233 11.4135 7.83233 11.8032L7.59854 13.6736C7.59854 13.9074 7.20886 13.9853 7.13093 13.6736L6.19572 10.2445C5.96192 9.85482 6.1178 9.38721 6.50747 9.23135Z" />
    </svg>

    <svg id="viber" viewBox="0 0 21 23" xmlns="http://www.w3.org/2000/svg">
        <path d="M16.2539 0.545914C12.4424 -0.181971 8.48429 -0.181971 4.67277 0.545914C2.98691 0.909856 0.861257 2.94793 0.494764 4.54928C-0.164922 7.67919 -0.164922 10.8819 0.494764 14.0118C0.934555 15.6131 3.06021 17.6512 4.67277 18.0152C4.74607 18.0152 4.81937 18.0879 4.81937 18.1607V22.7464C4.81937 22.9648 5.11257 23.1103 5.25916 22.892L7.45812 20.6355C7.45812 20.6355 9.21728 18.8158 9.51047 18.5247C9.51047 18.5247 9.58377 18.4519 9.65707 18.4519C11.856 18.5247 14.1283 18.3063 16.3272 17.9424C18.0131 17.5784 20.1387 15.5403 20.5052 13.939C21.1649 10.8091 21.1649 7.6064 20.5052 4.47649C20.0654 2.94793 17.9398 0.909856 16.2539 0.545914ZM16.3272 14.2302C15.9607 14.958 15.5209 15.5403 14.788 15.9043C14.5681 15.9771 14.3482 16.0499 14.1283 16.1227C13.8351 16.0499 13.6152 15.9771 13.3953 15.9043C11.0497 14.958 8.85079 13.6478 7.09162 11.7553C6.13874 10.6635 5.33246 9.42611 4.67277 8.11592C4.37958 7.46082 4.08639 6.87851 3.86649 6.22342C3.6466 5.64111 4.01309 5.0588 4.37958 4.62207C4.74607 4.18534 5.18586 3.89418 5.69895 3.67582C6.06545 3.45745 6.43194 3.60303 6.72513 3.89418C7.31152 4.62207 7.89791 5.34995 8.3377 6.15063C8.63089 6.66015 8.55759 7.24245 8.0445 7.6064C7.8979 7.67919 7.82461 7.75197 7.67801 7.89755C7.60471 7.97034 7.45811 8.04313 7.38481 8.1887C7.23822 8.40707 7.23822 8.62544 7.31152 8.8438C7.8979 10.5179 8.99738 11.8281 10.6832 12.556C10.9764 12.7016 11.1963 12.7744 11.5628 12.7744C12.0759 12.7016 12.2958 12.1193 12.6623 11.8281C13.0288 11.537 13.4686 11.537 13.9084 11.7553C14.2749 11.9737 14.6414 12.2649 15.0811 12.556C15.4476 12.8472 15.8141 13.0655 16.1806 13.3567C16.4005 13.5023 16.4738 13.8662 16.3272 14.2302ZM13.2487 8.77101C13.1021 8.77101 13.1754 8.77101 13.2487 8.77101C12.9555 8.77101 12.8822 8.62544 12.8089 8.40707C12.8089 8.26149 12.8089 8.04313 12.7356 7.89755C12.6623 7.6064 12.5157 7.31524 12.2225 7.09688C12.0759 7.02409 11.9293 6.9513 11.7827 6.87851C11.5628 6.80572 11.4162 6.80572 11.1963 6.80572C10.9764 6.73294 10.9031 6.58736 10.9031 6.36899C10.9031 6.22342 11.123 6.07784 11.2696 6.07784C12.4424 6.15063 13.322 6.80572 13.4686 8.1887C13.4686 8.26149 13.4686 8.40707 13.4686 8.47986C13.4686 8.62544 13.3953 8.77101 13.2487 8.77101ZM12.5157 5.56832C12.1492 5.42274 11.7827 5.27717 11.3429 5.20438C11.1963 5.20438 10.9764 5.13159 10.8298 5.13159C10.6099 5.13159 10.4634 4.98601 10.5366 4.76765C10.5366 4.54928 10.6832 4.4037 10.9031 4.47649C11.6361 4.54928 12.2958 4.69486 12.9555 4.98601C14.2749 5.64111 15.0079 6.73293 15.2277 8.1887C15.2277 8.26149 15.2277 8.33428 15.2277 8.40707C15.2277 8.55265 15.2277 8.69822 15.2277 8.91659C15.2277 8.98938 15.2277 9.06217 15.2277 9.13496C15.1545 9.42611 14.6414 9.4989 14.5681 9.13496C14.5681 9.06217 14.4948 8.91659 14.4948 8.8438C14.4948 8.18871 14.3482 7.53361 14.055 6.9513C13.6152 6.2962 13.1021 5.85947 12.5157 5.56832ZM16.4738 9.93563C16.2539 9.93563 16.1073 9.71726 16.1073 9.4989C16.1073 9.06217 16.034 8.62544 15.9607 8.1887C15.6675 5.85947 13.7618 3.96697 11.4895 3.60303C11.123 3.53024 10.7565 3.53024 10.4634 3.45745C10.2435 3.45745 9.95026 3.45745 9.87696 3.1663C9.80366 2.94793 10.0236 2.72957 10.2435 2.72957C10.3168 2.72957 10.3901 2.72957 10.3901 2.72957C13.3953 2.80236 10.5367 2.72957 10.3901 2.72957C13.4686 2.80236 16.034 4.84044 16.5471 7.89755C16.6204 8.40707 16.6937 8.91659 16.6937 9.4989C16.8403 9.71726 16.6937 9.93563 16.4738 9.93563Z" />
    </svg>

    <svg id="whatsapp" viewBox="0 0 21 21" xmlns="http://www.w3.org/2000/svg">
        <path d="M17.9268 3.0625C15.9512 1.09375 13.3171 0 10.5366 0C4.7561 0 0.0731696 4.66667 0.0731696 10.4271C0.0731696 12.25 0.585366 14.0729 1.46341 15.6042L0 21L5.56098 19.5417C7.09756 20.3438 8.78049 20.7813 10.5366 20.7813C16.3171 20.7813 21 16.1146 21 10.3542C20.9268 7.65625 19.9024 5.03125 17.9268 3.0625ZM15.5854 14.1458C15.3659 14.7292 14.3415 15.3125 13.8293 15.3854C13.3902 15.4583 12.8049 15.4583 12.2195 15.3125C11.8537 15.1667 11.3415 15.0208 10.7561 14.7292C8.12195 13.6354 6.43903 11.0104 6.29268 10.7917C6.14634 10.6458 5.19512 9.40625 5.19512 8.09375C5.19512 6.78125 5.85366 6.19792 6.07317 5.90625C6.29268 5.61458 6.58536 5.61458 6.80488 5.61458C6.95122 5.61458 7.17073 5.61458 7.31707 5.61458C7.46341 5.61458 7.68293 5.54167 7.90244 6.05208C8.12195 6.5625 8.63414 7.875 8.70731 7.94792C8.78049 8.09375 8.78049 8.23958 8.70731 8.38542C8.63414 8.53125 8.56097 8.67708 8.41463 8.82292C8.26829 8.96875 8.12195 9.1875 8.04878 9.26042C7.90244 9.40625 7.7561 9.55208 7.90244 9.77083C8.04878 10.0625 8.56097 10.8646 9.36585 11.5937C10.3902 12.4687 11.1951 12.7604 11.4878 12.9063C11.7805 13.0521 11.9268 12.9792 12.0732 12.8333C12.2195 12.6875 12.7317 12.1042 12.878 11.8125C13.0244 11.5208 13.2439 11.5938 13.4634 11.6667C13.6829 11.7396 15 12.3958 15.2195 12.5417C15.5122 12.6875 15.6585 12.7604 15.7317 12.8333C15.8049 13.0521 15.8049 13.5625 15.5854 14.1458Z" />
    </svg>

    <svg id="about-icon-1" viewBox="0 0 76 94" xmlns="http://www.w3.org/2000/svg">
        <path d="M38.0019 93.0802C17.5569 93.0802 0.921875 76.4452 0.921875 56.0002V17.0002C0.921875 16.4032 1.40487 15.9202 2.00187 15.9202C15.0639 15.9202 27.9069 10.5682 37.2399 1.23522C37.6629 0.812219 38.3439 0.812219 38.7669 1.23522C48.0969 10.5682 60.9399 15.9202 74.0019 15.9202C74.5989 15.9202 75.0819 16.4032 75.0819 17.0002V56.0002C75.0819 76.4452 58.4469 93.0802 38.0019 93.0802ZM3.08188 18.0682V56.0002C3.08188 75.2542 18.7479 90.9202 38.0019 90.9202C57.2559 90.9202 72.9219 75.2542 72.9219 56.0002V18.0682C60.0189 17.7892 47.4039 12.5332 38.0019 3.51222C28.5999 12.5332 15.9849 17.7892 3.08188 18.0682ZM54.0819 65.0002H51.9219V60.5002C51.9219 54.2362 47.7849 48.9082 41.6229 47.2432C41.1849 47.1232 40.8729 46.7482 40.8279 46.3012C40.7859 45.8512 41.0259 45.4252 41.4309 45.2272C44.1579 43.9102 45.9189 41.0722 45.9189 38.0002C45.9189 33.6322 42.3669 30.0802 37.9989 30.0802C33.6309 30.0802 30.0789 33.6352 30.0789 38.0002C30.0789 41.0692 31.8399 43.9072 34.5699 45.2272C34.9749 45.4222 35.2179 45.8512 35.1759 46.3012C35.1339 46.7482 34.8159 47.1232 34.3809 47.2432C28.2189 48.9082 24.0789 54.2392 24.0789 60.5002V65.0002H21.9189V60.5002C21.9189 54.0112 25.7439 48.3922 31.6479 45.9022C29.3349 43.9972 27.9219 41.0902 27.9219 38.0002C27.9219 32.4412 32.4429 27.9202 38.0019 27.9202C43.5609 27.9202 48.0819 32.4412 48.0819 38.0002C48.0819 41.0902 46.6689 43.9972 44.3529 45.9022C50.2569 48.3922 54.0819 54.0112 54.0819 60.5002V65.0002Z"/>
    </svg>

    <svg id="about-icon-2" viewBox="0 0 94 94" xmlns="http://www.w3.org/2000/svg">
        <path d="M2.00112 93.0802C1.71912 93.0802 1.44312 92.9692 1.23912 92.7652C0.927125 92.4532 0.837125 91.9792 1.00813 91.5772L10.0081 70.5772C10.0621 70.4512 10.1401 70.3342 10.2391 70.2382L78.3541 2.12022C79.1221 1.34922 80.1481 0.926219 81.2371 0.926219C81.2371 0.926219 81.2371 0.926219 81.2401 0.926219C82.3291 0.926219 83.3551 1.34922 84.1261 2.12022L91.8841 9.87822C93.4711 11.4682 93.4711 14.0542 91.8841 15.6472L23.7631 83.7652C23.6671 83.8612 23.5531 83.9392 23.4241 83.9932L2.42413 92.9932C2.28913 93.0532 2.14512 93.0802 2.00112 93.0802ZM6.41712 84.4402L4.05912 89.9422L9.55812 87.5842L6.41712 84.4402ZM7.33212 82.3042L11.6971 86.6722L21.9211 82.2892V78.0802H17.0011C16.4041 78.0802 15.9211 77.5972 15.9211 77.0002V72.0802H11.7121L7.33212 82.3042ZM18.0811 75.9202H23.0011C23.5981 75.9202 24.0811 76.4032 24.0811 77.0002V80.3932L76.9741 27.5002L66.5011 17.0272L13.6081 69.9202H17.0011C17.5981 69.9202 18.0811 70.4032 18.0811 71.0002V75.9202ZM68.0311 15.5002L78.5011 25.9732L81.4741 23.0002L71.0011 12.5272L68.0311 15.5002ZM72.5311 11.0002L83.0011 21.4732L90.3541 14.1202C91.1011 13.3702 91.1011 12.1522 90.3541 11.4052L82.5961 3.64722C82.2331 3.28422 81.7531 3.08322 81.2401 3.08322C81.2371 3.08322 81.2371 3.08322 81.2371 3.08322C80.7241 3.08322 80.2441 3.28422 79.8841 3.64722L72.5311 11.0002ZM77.0011 93.0802C76.7251 93.0802 76.4461 92.9752 76.2361 92.7652L49.2361 65.7652L50.7631 64.2352L54.4981 67.9732L61.2331 61.2352L62.7631 62.7652L56.0281 69.5002L62.0011 75.4732L65.7361 71.7352L67.2661 73.2652L63.5281 77.0002L69.5011 82.9732L76.2361 76.2352L77.7661 77.7652L71.0281 84.5002L77.0011 90.4732L90.4741 77.0002L64.2361 50.7652L65.7661 49.2382L92.7661 76.2382C93.1891 76.6612 93.1891 77.3452 92.7661 77.7682L77.7661 92.7682C77.5561 92.9752 77.2771 93.0802 77.0011 93.0802ZM25.2631 70.2652L23.7361 68.7352L67.2361 25.2352L68.7661 26.7622L25.2631 70.2652ZM28.2391 44.7622L1.23912 17.7622C0.816125 17.3392 0.816125 16.6582 1.23912 16.2352L16.2391 1.23522C16.6621 0.812219 17.3431 0.812219 17.7661 1.23522L44.7661 28.2352L43.2391 29.7622L17.0011 3.52722L3.52812 17.0002L9.50112 22.9732L16.2391 16.2382L17.7661 17.7652L11.0281 24.5002L17.0011 30.4732L20.7391 26.7382L22.2661 28.2652L18.5281 32.0002L24.5011 37.9732L31.2391 31.2382L32.7661 32.7652L26.0281 39.5002L29.7631 43.2382L28.2391 44.7622Z"/>
    </svg>

    <svg id="about-icon-3" viewBox="0 0 94 92" xmlns="http://www.w3.org/2000/svg">
        <path d="M93.0819 91.9999H90.9219C90.9219 72.7039 76.5909 55.3039 56.8449 50.6239C56.3949 50.5159 56.0619 50.1349 56.0199 49.6729C55.9749 49.2139 56.2329 48.7759 56.6559 48.5869C60.6399 46.8139 64.0659 43.9759 66.5619 40.3849L68.3379 41.6179C66.1629 44.7469 63.3399 47.3509 60.0789 49.2559C79.3569 55.0639 93.0819 72.6199 93.0819 91.9999ZM3.08188 91.9999H0.921875C0.921875 72.6199 14.6439 55.0639 33.9279 49.2559C26.0259 44.6389 21.0549 36.1309 21.0549 26.8609C21.0549 12.5569 32.6919 0.919922 46.9989 0.919922C54.7479 0.919922 62.0289 4.34292 66.9759 10.3099L65.3109 11.6899C60.7809 6.21792 54.1059 3.07992 47.0019 3.07992C33.8859 3.07992 23.2179 13.7479 23.2179 26.8609C23.2179 36.2359 28.7649 44.7649 37.3509 48.5839C37.7739 48.7729 38.0289 49.2109 37.9869 49.6699C37.9449 50.1319 37.6119 50.5129 37.1619 50.6209C17.4129 55.3039 3.08188 72.7039 3.08188 91.9999ZM56.0019 39.0799C53.7519 39.0799 51.9219 37.2499 51.9219 34.9999C51.9219 32.7499 53.7519 30.9199 56.0019 30.9199C57.8649 30.9199 59.4399 32.1739 59.9259 33.8809C65.5179 33.4099 69.9219 28.7089 69.9219 22.9999V16.9999H72.0849V22.9999C72.0849 29.8939 66.7209 35.5609 59.9469 36.0469C59.4819 37.7899 57.8919 39.0799 56.0019 39.0799ZM56.0019 33.0799C54.9429 33.0799 54.0819 33.9409 54.0819 34.9999C54.0819 36.0589 54.9429 36.9199 56.0019 36.9199C57.0609 36.9199 57.9219 36.0589 57.9219 34.9999C57.9219 33.9409 57.0609 33.0799 56.0019 33.0799Z"/>
    </svg>

    <svg id="about-icon-4" viewBox="0 0 76 94" xmlns="http://www.w3.org/2000/svg">
        <path d="M38.0019 93.0802C17.5569 93.0802 0.921875 76.4452 0.921875 56.0002V17.0002C0.921875 16.4032 1.40487 15.9202 2.00187 15.9202C15.0639 15.9202 27.9069 10.5682 37.2399 1.23522C37.6629 0.812219 38.3439 0.812219 38.7669 1.23522C48.0969 10.5682 60.9399 15.9202 74.0019 15.9202C74.5989 15.9202 75.0819 16.4032 75.0819 17.0002V56.0002C75.0819 76.4452 58.4469 93.0802 38.0019 93.0802ZM3.08188 18.0682V56.0002C3.08188 75.2542 18.7479 90.9202 38.0019 90.9202C57.2559 90.9202 72.9219 75.2542 72.9219 56.0002V18.0682C60.0189 17.7892 47.4039 12.5332 38.0019 3.51222C28.5999 12.5332 15.9849 17.7892 3.08188 18.0682ZM54.0819 65.0002H51.9219V60.5002C51.9219 54.2362 47.7849 48.9082 41.6229 47.2432C41.1849 47.1232 40.8729 46.7482 40.8279 46.3012C40.7859 45.8512 41.0259 45.4252 41.4309 45.2272C44.1579 43.9102 45.9189 41.0722 45.9189 38.0002C45.9189 33.6322 42.3669 30.0802 37.9989 30.0802C33.6309 30.0802 30.0789 33.6352 30.0789 38.0002C30.0789 41.0692 31.8399 43.9072 34.5699 45.2272C34.9749 45.4222 35.2179 45.8512 35.1759 46.3012C35.1339 46.7482 34.8159 47.1232 34.3809 47.2432C28.2189 48.9082 24.0789 54.2392 24.0789 60.5002V65.0002H21.9189V60.5002C21.9189 54.0112 25.7439 48.3922 31.6479 45.9022C29.3349 43.9972 27.9219 41.0902 27.9219 38.0002C27.9219 32.4412 32.4429 27.9202 38.0019 27.9202C43.5609 27.9202 48.0819 32.4412 48.0819 38.0002C48.0819 41.0902 46.6689 43.9972 44.3529 45.9022C50.2569 48.3922 54.0819 54.0112 54.0819 60.5002V65.0002Z"/>
    </svg>

    <svg id="load-arrow" viewBox="0 0 16 19" xmlns="http://www.w3.org/2000/svg">
        <path d="M16 7.86207C16 6.3071 15.5308 4.78705 14.6518 3.49414C13.7727 2.20123 12.5233 1.19353 11.0615 0.598468C9.59966 0.00340597 7.99113 -0.152289 6.43928 0.151071C4.88743 0.454431 3.46197 1.20322 2.34315 2.30275C1.22433 3.40228 0.462403 4.80317 0.15372 6.32826C-0.154962 7.85335 0.00346458 9.43415 0.608966 10.8708C1.21447 12.3074 2.23985 13.5352 3.55544 14.3991C4.87103 15.263 6.41775 15.7241 8 15.7241L10.6667 15.7241L10.6667 19L14.6667 15.069L10.6667 11.1379L10.6667 14.4138L8 14.4138C6.68146 14.4138 5.39253 14.0295 4.2962 13.3096C3.19987 12.5897 2.34539 11.5665 1.8408 10.3693C1.33622 9.17214 1.2042 7.8548 1.46143 6.58389C1.71867 5.31298 2.35361 4.14558 3.28596 3.2293C4.21831 2.31303 5.40619 1.68904 6.6994 1.43624C7.99261 1.18344 9.33305 1.31318 10.5512 1.80907C11.7694 2.30495 12.8106 3.1447 13.5431 4.22213C14.2757 5.29955 14.6667 6.56626 14.6667 7.86207L16 7.86207Z" />
    </svg>

    <svg id="at" viewBox="0 0 18 17" xmlns="http://www.w3.org/2000/svg">
        <path d="M14.5808 2.15769C13.0116 0.719232 11.1154 0 8.76153 0C6.3423 0 4.25 0.784616 2.55 2.41923C0.849996 4.05385 0 6.08077 0 8.5C0 10.8538 0.784623 12.8154 2.41924 14.5154C4.05385 16.2154 6.21155 17 9.02309 17C10.6577 17 12.2923 16.6731 13.9269 15.9538C14.45 15.7577 14.7115 15.1038 14.5154 14.5808C14.3192 14.0577 13.6654 13.7962 13.1423 13.9923C11.7692 14.5808 10.3962 14.9077 9.08846 14.9077C6.99615 14.9077 5.36154 14.2538 4.18461 12.9462C3.00769 11.6385 2.41924 10.1346 2.41924 8.43462C2.41924 6.53846 3.07308 4.96923 4.25 3.72692C5.49231 2.48461 6.99615 1.83077 8.82692 1.83077C10.4615 1.83077 11.9 2.35385 13.0769 3.4C14.2538 4.44615 14.7769 5.75385 14.7769 7.32308C14.7769 8.36923 14.5154 9.28462 13.9923 10.0038C13.4692 10.7231 12.9462 11.05 12.3577 11.05C12.0308 11.05 11.9 10.9192 11.9 10.5269C11.9 10.2654 11.9 9.93846 11.9654 9.61154L12.6192 4.31539H10.3962L10.2654 4.83846C9.67693 4.38077 9.08846 4.11923 8.43461 4.11923C7.38846 4.11923 6.47309 4.57692 5.68847 5.42692C4.90385 6.27692 4.57692 7.38846 4.57692 8.69616C4.57692 10.0038 4.90385 11.05 5.62308 11.9C6.27693 12.6846 7.12694 13.0769 8.04232 13.0769C8.89232 13.0769 9.61154 12.75 10.2 12.0308C10.6577 12.6846 11.3115 13.0769 12.2269 13.0769C13.5346 13.0769 14.6462 12.4885 15.6269 11.3769C16.6077 10.2654 17.0654 8.89231 17.0654 7.25769C16.8692 5.29615 16.0846 3.53077 14.5808 2.15769ZM9.41538 10.1346C9.02307 10.6577 8.56539 10.9192 7.97693 10.9192C7.58462 10.9192 7.32309 10.7231 7.06155 10.3308C6.80001 9.93846 6.73463 9.48077 6.73463 8.89231C6.73463 8.17308 6.86539 7.58462 7.19231 7.19231C7.51923 6.73462 7.91155 6.53846 8.36924 6.53846C8.76155 6.53846 9.15385 6.66923 9.48077 7.06154C9.80769 7.38846 9.93847 7.84616 9.93847 8.36923C10.0039 9.02308 9.80769 9.61154 9.41538 10.1346Z"/>
    </svg>

    <svg id="twitter" viewBox="0 0 20 16" xmlns="http://www.w3.org/2000/svg">
        <path d="M19.6 1.89999C18.9 2.19999 18.1 2.4 17.3 2.5C18.1 2 18.8 1.2 19.1 0.300003C18.3 0.800003 17.5 1.1 16.5 1.3C15.8 0.500003 14.7 0 13.6 0C11.4 0 9.59999 1.8 9.59999 4C9.59999 4.3 9.6 4.59999 9.7 4.89999C6.4 4.69999 3.39999 3.1 1.39999 0.699997C1.09999 1.3 0.899994 2 0.899994 2.7C0.899994 4.1 1.6 5.3 2.7 6C2 6 1.39999 5.8 0.899994 5.5C0.899994 7.4 2.29999 9.09999 4.09999 9.39999C3.79999 9.49999 3.4 9.5 3 9.5C2.7 9.5 2.5 9.49999 2.2 9.39999C2.7 11 4.2 12.2 6 12.2C4.6 13.3 2.9 13.9 1 13.9C0.7 13.9 0.4 13.9 0 13.8C1.8 14.9 3.9 15.6 6.2 15.6C13.6 15.6 17.6 9.5 17.6 4.2V3.7C18.4 3.4 19.1 2.69999 19.6 1.89999Z" />
    </svg>

    <svg id="cat-slider-next" viewBox="0 0 9 14" fill="none" xmlns="http://www.w3.org/2000/svg">
        <path d="M1.5 13L7.5 7L1.5 0.999999" stroke-width="2"/>
    </svg>

    <svg id="cat-slider-prev" viewBox="0 0 9 14" fill="none" xmlns="http://www.w3.org/2000/svg">
        <path d="M8 1L2 7L8 13" stroke-width="2"/>
    </svg>

    <svg id="check" viewBox="0 0 12 9" fill="none" xmlns="http://www.w3.org/2000/svg">
        <path d="M1 4L4.5 7.5L11 1" />
    </svg>

    <svg id="banner-user" width="56" height="55" viewBox="0 0 56 55" fill="none" xmlns="http://www.w3.org/2000/svg">
        <path d="M54.8801 54.2491H53.6201C53.6201 42.9931 45.2604 32.8431 33.7419 30.1131C33.4794 30.0501 33.2851 29.8279 33.2606 29.5584C33.2344 29.2906 33.3849 29.0351 33.6316 28.9249C35.9556 27.8906 37.9541 26.2351 39.4101 24.1404L40.4461 24.8596C39.1774 26.6849 37.5306 28.2039 35.6284 29.3151C46.8739 32.7031 54.8801 42.9441 54.8801 54.2491ZM2.38012 54.2491H1.12012C1.12012 42.9441 9.12462 32.7031 20.3736 29.3151C15.7641 26.6219 12.8644 21.6589 12.8644 16.2514C12.8644 7.90739 19.6526 1.11914 27.9984 1.11914C32.5186 1.11914 36.7659 3.11589 39.6516 6.59664L38.6804 7.40164C36.0379 4.20964 32.1441 2.37914 28.0001 2.37914C20.3491 2.37914 14.1261 8.60214 14.1261 16.2514C14.1261 21.7201 17.3619 26.6954 22.3704 28.9231C22.6171 29.0334 22.7659 29.2889 22.7414 29.5566C22.7169 29.8261 22.5226 30.0484 22.2601 30.1114C10.7399 32.8431 2.38012 42.9931 2.38012 54.2491ZM33.2501 23.3791C31.9376 23.3791 30.8701 22.3116 30.8701 20.9991C30.8701 19.6866 31.9376 18.6191 33.2501 18.6191C34.3369 18.6191 35.2556 19.3506 35.5391 20.3464C38.8011 20.0716 41.3701 17.3294 41.3701 13.9991V10.4991H42.6319V13.9991C42.6319 18.0206 39.5029 21.3264 35.5514 21.6099C35.2801 22.6266 34.3526 23.3791 33.2501 23.3791ZM33.2501 19.8791C32.6324 19.8791 32.1301 20.3814 32.1301 20.9991C32.1301 21.6169 32.6324 22.1191 33.2501 22.1191C33.8679 22.1191 34.3701 21.6169 34.3701 20.9991C34.3701 20.3814 33.8679 19.8791 33.2501 19.8791Z" fill="white" stroke="white"/>
    </svg>

    <svg id="zoom" viewBox="0 0 32 32" xmlns="http://www.w3.org/2000/svg">
        <path d="M27.0098 12L25.5998 13.41L28.1798 16L25.5898 18.59L27.0098 20L31.0098 16L27.0098 12Z" />
        <path d="M6.41 13.42L5 12L1 16L5 20L6.42 18.59L3.83 16L6.41 13.42Z" />
        <path d="M16 28.1701L13.41 25.5801L12 27.0001L16 31.0001L20 27.0001L18.59 25.5901L16 28.1701Z" />
        <path d="M16 3.83L18.58 6.41L20 5L16 1L12 5L13.41 6.42L16 3.83Z" />
        <path d="M22 16.0009C22.0011 14.656 21.5503 13.3497 20.7199 12.2917C19.8895 11.2337 18.7278 10.4854 17.4211 10.1668C16.1145 9.84828 14.7387 9.97797 13.5146 10.5351C12.2905 11.0922 11.289 12.0444 10.671 13.239C10.053 14.4335 9.85421 15.801 10.1066 17.122C10.359 18.4431 11.0479 19.641 12.0628 20.5236C13.0776 21.4061 14.3595 21.9221 15.7028 21.9887C17.0461 22.0553 18.3728 21.6687 19.47 20.8909L23.29 24.7109L24.71 23.2909L20.89 19.4709C21.6107 18.4572 21.9986 17.2447 22 16.0009ZM16 20.0009C15.2089 20.0009 14.4355 19.7663 13.7777 19.3268C13.1199 18.8873 12.6072 18.2625 12.3045 17.5316C12.0017 16.8007 11.9225 15.9965 12.0769 15.2205C12.2312 14.4446 12.6122 13.7319 13.1716 13.1725C13.731 12.6131 14.4437 12.2321 15.2196 12.0778C15.9956 11.9234 16.7998 12.0026 17.5307 12.3054C18.2616 12.6081 18.8864 13.1208 19.3259 13.7786C19.7654 14.4364 20 15.2098 20 16.0009C20 17.0618 19.5786 18.0792 18.8284 18.8293C18.0783 19.5795 17.0609 20.0009 16 20.0009Z" />
    </svg>

    <svg id="cursor" viewBox="0 0 19 18" xmlns="http://www.w3.org/2000/svg">
        <path d="M17.5055 6.0445L1.00548 0.0445006C0.871525 -0.00382117 0.726584 -0.0130092 0.587601 0.0180108C0.448619 0.0490308 0.32134 0.118977 0.220647 0.21967C0.119953 0.320363 0.0500073 0.447643 0.0189874 0.586625C-0.0120326 0.725607 -0.00284461 0.870548 0.0454772 1.0045L6.04548 17.5045C6.09788 17.6495 6.19368 17.7747 6.31982 17.8633C6.44597 17.9519 6.59634 17.9994 6.75048 17.9995C6.90069 17.9996 7.04748 17.9547 7.17184 17.8704C7.2962 17.7862 7.3924 17.6665 7.44798 17.527L10.328 10.327L17.528 7.447C17.6703 7.39303 17.7928 7.29704 17.8792 7.17178C17.9657 7.04653 18.012 6.89794 18.012 6.74575C18.012 6.59356 17.9657 6.44497 17.8792 6.31972C17.7928 6.19446 17.6703 6.09848 17.528 6.0445H17.5055ZM9.47298 9.0445L9.17298 9.1645L9.05298 9.4645L6.75048 15.1495L2.00298 2.002L15.1505 6.7495L9.47298 9.0445Z" />
    </svg>

    <svg id="car" viewBox="0 0 22 17" xmlns="http://www.w3.org/2000/svg">
        <path d="M21.3575 8L16.1075 0.83C16.0401 0.730296 15.9498 0.648263 15.844 0.590827C15.7383 0.533392 15.6203 0.502239 15.5 0.5H1.25C1.05109 0.5 0.860322 0.579018 0.71967 0.71967C0.579018 0.860322 0.5 1.05109 0.5 1.25V14C0.5 14.1989 0.579018 14.3897 0.71967 14.5303C0.860322 14.671 1.05109 14.75 1.25 14.75H2.855C3.02771 15.3855 3.40475 15.9466 3.92795 16.3465C4.45114 16.7465 5.09142 16.9632 5.75 16.9632C6.40858 16.9632 7.04886 16.7465 7.57205 16.3465C8.09525 15.9466 8.47229 15.3855 8.645 14.75H13.355C13.5277 15.3855 13.9048 15.9466 14.4279 16.3465C14.9511 16.7465 15.5914 16.9632 16.25 16.9632C16.9086 16.9632 17.5489 16.7465 18.0721 16.3465C18.5952 15.9466 18.9723 15.3855 19.145 14.75H20.75C20.9489 14.75 21.1397 14.671 21.2803 14.5303C21.421 14.3897 21.5 14.1989 21.5 14V8.42C21.4959 8.26883 21.4463 8.12243 21.3575 8ZM14 2H15.1175L18.965 7.25H14V2ZM2 2H12.5V7.25H2V2ZM5.75 15.5C5.45333 15.5 5.16332 15.412 4.91665 15.2472C4.66997 15.0824 4.47771 14.8481 4.36418 14.574C4.25065 14.2999 4.22094 13.9983 4.27882 13.7074C4.3367 13.4164 4.47956 13.1491 4.68934 12.9393C4.89912 12.7296 5.16639 12.5867 5.45736 12.5288C5.74834 12.4709 6.04994 12.5006 6.32403 12.6142C6.59811 12.7277 6.83238 12.92 6.9972 13.1666C7.16203 13.4133 7.25 13.7033 7.25 14C7.25 14.3978 7.09196 14.7794 6.81066 15.0607C6.52936 15.342 6.14782 15.5 5.75 15.5ZM16.25 15.5C15.9533 15.5 15.6633 15.412 15.4166 15.2472C15.17 15.0824 14.9777 14.8481 14.8642 14.574C14.7506 14.2999 14.7209 13.9983 14.7788 13.7074C14.8367 13.4164 14.9796 13.1491 15.1893 12.9393C15.3991 12.7296 15.6664 12.5867 15.9574 12.5288C16.2483 12.4709 16.5499 12.5006 16.824 12.6142C17.0981 12.7277 17.3324 12.92 17.4972 13.1666C17.662 13.4133 17.75 13.7033 17.75 14C17.75 14.3978 17.592 14.7794 17.3107 15.0607C17.0294 15.342 16.6478 15.5 16.25 15.5ZM20 13.25H19.145C18.9723 12.6145 18.5952 12.0534 18.0721 11.6534C17.5489 11.2535 16.9086 11.0367 16.25 11.0367C15.5914 11.0367 14.9511 11.2535 14.4279 11.6534C13.9048 12.0534 13.5277 12.6145 13.355 13.25H8.645C8.47229 12.6145 8.09525 12.0534 7.57205 11.6534C7.04886 11.2535 6.40858 11.0367 5.75 11.0367C5.09142 11.0367 4.45114 11.2535 3.92795 11.6534C3.40475 12.0534 3.02771 12.6145 2.855 13.25H2V8.75H20V13.25Z" />
    </svg>

    <svg id="tools" viewBox="0 0 24 24" xmlns="http://www.w3.org/2000/svg">
        <path d="M6.6856 18.3743L9.87835 15.1817L8.81785 14.1211L5.62503 17.3137L5.03028 16.719C4.96067 16.6493 4.87801 16.5941 4.78702 16.5564C4.69604 16.5187 4.59852 16.4992 4.50003 16.4992C4.40154 16.4992 4.30401 16.5187 4.21303 16.5564C4.12205 16.5941 4.03939 16.6493 3.96978 16.719L0.969776 19.719C0.900103 19.7886 0.844831 19.8713 0.807121 19.9623C0.76941 20.0533 0.75 20.1508 0.75 20.2493C0.75 20.3478 0.76941 20.4453 0.807121 20.5363C0.844831 20.6272 0.900103 20.7099 0.969776 20.7795L3.21978 23.0295C3.28939 23.0992 3.37205 23.1544 3.46304 23.1922C3.55402 23.2299 3.65154 23.2493 3.75003 23.2493C3.84851 23.2493 3.94603 23.2299 4.03702 23.1922C4.128 23.1544 4.21066 23.0992 4.28028 23.0295L7.28028 20.0295C7.34995 19.9599 7.40522 19.8772 7.44293 19.7863C7.48064 19.6953 7.50005 19.5978 7.50005 19.4993C7.50005 19.4008 7.48064 19.3033 7.44293 19.2123C7.40522 19.1213 7.34995 19.0386 7.28028 18.969L6.6856 18.3743ZM3.75003 21.4387L2.5606 20.2493L4.50003 18.3098L5.68945 19.4993L3.75003 21.4387Z" />
        <path d="M18.0001 22.5C16.807 22.4987 15.6632 22.0242 14.8195 21.1806C13.9759 20.3369 13.5014 19.1931 13.5001 18C13.5006 17.608 13.5538 17.2178 13.6582 16.8399L7.16023 10.342C6.7823 10.4463 6.3921 10.4995 6.00005 10.5C5.26688 10.503 4.54417 10.3261 3.89529 9.98477C3.24641 9.64344 2.69118 9.14813 2.27828 8.54227C1.86538 7.93641 1.60742 7.23851 1.52703 6.50975C1.44663 5.78099 1.54625 5.04364 1.81715 4.36234L2.23543 3.29592L4.7198 5.78029C4.86259 5.91666 5.05243 5.99274 5.24986 5.99274C5.4473 5.99274 5.63714 5.91666 5.77993 5.78029C5.84965 5.7107 5.90496 5.62804 5.9427 5.53705C5.98044 5.44606 5.99987 5.34852 5.99987 5.25001C5.99987 5.1515 5.98044 5.05395 5.9427 4.96296C5.90496 4.87197 5.84965 4.78931 5.77993 4.71972L3.29525 2.23429L4.36273 1.81647C5.04407 1.54591 5.78136 1.44658 6.51001 1.52717C7.23866 1.60776 7.93642 1.86582 8.54217 2.27874C9.14791 2.69165 9.64315 3.24681 9.98449 3.89559C10.3258 4.54437 10.5029 5.26696 10.5001 6.00004C10.4995 6.39211 10.4463 6.78232 10.3419 7.16022L16.8399 13.6578C17.2178 13.5537 17.608 13.5006 18.0001 13.5C18.7332 13.497 19.456 13.6739 20.1048 14.0153C20.7537 14.3566 21.309 14.8519 21.7219 15.4578C22.1348 16.0636 22.3927 16.7616 22.4731 17.4903C22.5535 18.2191 22.4538 18.9565 22.1829 19.6377L21.7651 20.7042L19.2803 18.2198C19.1375 18.0834 18.9477 18.0073 18.7502 18.0073C18.5528 18.0073 18.363 18.0834 18.2202 18.2198C18.1504 18.2894 18.0951 18.372 18.0573 18.463C18.0195 18.554 18.0001 18.6515 18.0001 18.75C18 18.8485 18.0194 18.9461 18.0571 19.0371C18.0948 19.1281 18.1501 19.2108 18.2198 19.2804L20.7042 21.765L19.6378 22.1835C19.1166 22.3908 18.561 22.4982 18.0001 22.5ZM7.54693 8.60727L15.3926 16.4532L15.2132 16.9102C15.0376 17.3493 14.9689 17.8239 15.0129 18.2948C15.0569 18.7657 15.2123 19.2194 15.4663 19.6184C15.7202 20.0173 16.0654 20.3502 16.4734 20.5894C16.8813 20.8286 17.3404 20.9674 17.8126 20.9942L17.1592 20.3409C16.9503 20.132 16.7845 19.884 16.6714 19.611C16.5583 19.338 16.5001 19.0454 16.5001 18.75C16.5001 18.4545 16.5583 18.1619 16.6714 17.8889C16.7845 17.616 16.9503 17.368 17.1592 17.1591C17.5879 16.7499 18.1577 16.5217 18.7503 16.5217C19.3429 16.5218 19.9127 16.7502 20.3413 17.1594L20.9942 17.8125C20.9673 17.3404 20.8285 16.8813 20.5893 16.4734C20.35 16.0654 20.0171 15.7202 19.6181 15.4663C19.2191 15.2123 18.7654 15.0569 18.2945 15.0129C17.8236 14.9689 17.349 15.0376 16.9099 15.2132L16.4528 15.3921L8.6078 7.54707L8.7872 7.09002C8.96284 6.6509 9.0315 6.17629 8.98751 5.7054C8.94352 5.2345 8.78815 4.78082 8.53422 4.38183C8.28028 3.98284 7.93508 3.64998 7.52711 3.41073C7.11914 3.17148 6.66011 3.03272 6.18793 3.00589L6.84088 3.65922C7.04985 3.86811 7.21563 4.11612 7.32873 4.38909C7.44183 4.66206 7.50004 4.95464 7.50004 5.25012C7.50004 5.54559 7.44183 5.83817 7.32873 6.11115C7.21563 6.38412 7.04985 6.63213 6.84088 6.84102C6.41221 7.25016 5.84238 7.47841 5.24979 7.47834C4.6572 7.47827 4.08743 7.24989 3.65885 6.84064L3.0059 6.18754C3.03267 6.65974 3.17139 7.11878 3.41061 7.52677C3.64983 7.93476 3.98268 8.27998 4.38168 8.53392C4.78068 8.78786 5.23436 8.94322 5.70527 8.98718C6.17617 9.03114 6.65077 8.96244 7.08988 8.78674L7.54693 8.60727Z" />
        <path d="M21.8418 2.13747C21.4132 1.72831 20.8435 1.5 20.2509 1.5C19.6584 1.5 19.0887 1.72831 18.6601 2.13747L13.0498 7.74747L14.1104 8.80797L19.7204 3.19797C19.8633 3.06167 20.0532 2.98562 20.2507 2.98562C20.4482 2.98562 20.6381 3.06167 20.781 3.19797C20.9213 3.33883 21.0001 3.52957 21.0001 3.72841C21.0001 3.92725 20.9213 4.11799 20.781 4.25885L15.171 9.86885L16.2315 10.9294L21.8415 5.3198C22.263 4.89757 22.4998 4.32533 22.4998 3.7287C22.4999 3.13207 22.2632 2.55979 21.8418 2.13747Z" />
    </svg>

    <svg id="guard" viewBox="0 0 24 24" xmlns="http://www.w3.org/2000/svg">
        <path d="M16.5 12H7.5V13.5H16.5V12Z" />
        <path d="M16.5 7.5H7.5V9H16.5V7.5Z" />
        <path d="M12 22.5L7.36816 20.0303C6.04759 19.3279 4.94325 18.279 4.17369 16.9964C3.40412 15.7138 2.99838 14.2458 3 12.75V3C3.00044 2.60231 3.15862 2.22103 3.43983 1.93982C3.72104 1.65861 4.10231 1.50044 4.50001 1.5H19.5C19.8977 1.50044 20.279 1.65861 20.5602 1.93982C20.8414 2.22103 20.9996 2.60231 21 3V12.75C21.0016 14.2458 20.5959 15.7137 19.8263 16.9963C19.0567 18.2789 17.9524 19.3277 16.6319 20.0302L12 22.5ZM4.50001 3V12.75C4.49871 13.9739 4.83072 15.175 5.46041 16.2244C6.0901 17.2738 6.9937 18.132 8.07421 18.7067L12 20.8L15.9258 18.7067C17.0063 18.132 17.9099 17.2738 18.5396 16.2244C19.1693 15.175 19.5013 13.9739 19.5 12.75V3H4.50001Z" />
    </svg>

    <svg id="portmone" viewBox="0 0 24 24" xmlns="http://www.w3.org/2000/svg">
        <path d="M21 4.5H3C2.60218 4.5 2.22064 4.65804 1.93934 4.93934C1.65804 5.22064 1.5 5.60218 1.5 6V18C1.5 18.3978 1.65804 18.7794 1.93934 19.0607C2.22064 19.342 2.60218 19.5 3 19.5H21C21.3978 19.5 21.7794 19.342 22.0607 19.0607C22.342 18.7794 22.5 18.3978 22.5 18V6C22.5 5.60218 22.342 5.22064 22.0607 4.93934C21.7794 4.65804 21.3978 4.5 21 4.5ZM21 6V8.25H3V6H21ZM3 18V9.75H21V18H3Z" />
        <path d="M12 15H4.5V16.5H12V15Z" />
    </svg>

    <svg id="percent" viewBox="0 0 44 50" xmlns="http://www.w3.org/2000/svg">
        <path d="M24.7137 40.2091V37.6426C24.7137 35.8682 25.0852 34.2443 25.8282 32.7709C26.5874 31.2817 27.6858 30.0935 29.1234 29.2063C30.5771 28.3032 32.3377 27.8517 34.4053 27.8517C36.5051 27.8517 38.2658 28.3032 39.6872 29.2063C41.1087 30.0935 42.1828 31.2817 42.9097 32.7709C43.6366 34.2443 44 35.8682 44 37.6426V40.2091C44 41.9835 43.6285 43.6153 42.8855 45.1046C42.1586 46.5779 41.0764 47.7662 39.6388 48.6692C38.2173 49.5564 36.4728 50 34.4053 50C32.3054 50 30.5367 49.5564 29.0991 48.6692C27.6615 47.7662 26.5712 46.5779 25.8282 45.1046C25.0852 43.6153 24.7137 41.9835 24.7137 40.2091ZM29.6564 37.6426V40.2091C29.6564 41.6825 30.0117 43.0054 30.7225 44.1778C31.4332 45.3343 32.6608 45.9125 34.4053 45.9125C36.1013 45.9125 37.2966 45.3343 37.9912 44.1778C38.7019 43.0054 39.0573 41.6825 39.0573 40.2091V37.6426C39.0573 36.1692 38.7181 34.8542 38.0396 33.6977C37.3612 32.5253 36.1498 31.9392 34.4053 31.9392C32.7092 31.9392 31.4897 32.5253 30.7467 33.6977C30.0198 34.8542 29.6564 36.1692 29.6564 37.6426ZM0 12.3574V9.79087C0 8.01648 0.371513 6.39259 1.11454 4.9192C1.87372 3.42998 2.9721 2.24176 4.40969 1.35456C5.86344 0.451521 7.62408 0 9.69163 0C11.7915 0 13.5521 0.451521 14.9736 1.35456C16.395 2.24176 17.4692 3.42998 18.196 4.9192C18.9229 6.39259 19.2863 8.01648 19.2863 9.79087V12.3574C19.2863 14.1318 18.9148 15.7636 18.1718 17.2528C17.4449 18.7262 16.3627 19.9144 14.9251 20.8175C13.5037 21.7047 11.7592 22.1483 9.69163 22.1483C7.59178 22.1483 5.82305 21.7047 4.38546 20.8175C2.94787 19.9144 1.85756 18.7262 1.11454 17.2528C0.371513 15.7636 0 14.1318 0 12.3574ZM4.94273 9.79087V12.3574C4.94273 13.8308 5.29809 15.1537 6.00881 16.326C6.71953 17.4826 7.94714 18.0608 9.69163 18.0608C11.3877 18.0608 12.583 17.4826 13.2775 16.326C13.9883 15.1537 14.3436 13.8308 14.3436 12.3574V9.79087C14.3436 8.31749 14.0044 7.00253 13.326 5.84601C12.6476 4.67364 11.4361 4.08745 9.69163 4.08745C7.99559 4.08745 6.77606 4.67364 6.03304 5.84601C5.30617 7.00253 4.94273 8.31749 4.94273 9.79087ZM1.84141 49.3346L35.9559 0.6654H41.4802L7.36564 49.3346H1.84141Z" />
    </svg>

    <svg id="newpost" viewBox="0 0 16 16" fill="none" xmlns="http://www.w3.org/2000/svg">
        <path fill-rule="evenodd" clip-rule="evenodd" d="M12.8211 4.73624C12.8695 4.72082 12.9332 4.75166 12.9968 4.83648C12.9968 4.83648 12.9968 4.83648 15.8744 7.67921C16.0425 7.84885 16.0425 8.10587 15.8744 8.23182C15.8744 8.23182 15.8744 8.23182 12.9968 11.1182C12.9332 11.2031 12.8695 11.2236 12.8211 11.1979C12.7727 11.1722 12.7422 11.0977 12.7422 10.9897V4.9213C12.7422 4.81592 12.7727 4.75166 12.8211 4.73624Z" fill="#ED1C24"/>
        <path fill-rule="evenodd" clip-rule="evenodd" d="M7.90097 0H8.10469L8.30077 0.0822492C8.30077 0.0822492 8.30077 0.082249 11.2624 3.05349C11.3897 3.22313 11.3464 3.35164 11.1351 3.35164C11.1351 3.35164 11.1351 3.35164 9.90763 3.35164C9.69627 3.35164 9.5282 3.52128 9.5282 3.73461C9.5282 3.73461 9.5282 3.73461 9.5282 5.93991C9.5282 6.15324 9.35758 6.32288 9.10293 6.32288C9.10293 6.32288 9.10293 6.32288 6.94602 6.32288C6.73466 6.32288 6.56404 6.15324 6.56404 5.93991C6.56404 5.93991 6.56404 5.93991 6.56404 3.73461C6.56404 3.52128 6.39597 3.35164 6.18206 3.35164H4.8706C4.65924 3.35164 4.61595 3.22313 4.74327 3.05349C4.74327 3.05349 4.74327 3.05349 7.70743 0.0822492L7.90097 0Z" fill="#ED1C24"/>
        <path fill-rule="evenodd" clip-rule="evenodd" d="M3.25828 4.67246C3.31176 4.69816 3.34486 4.7727 3.34486 4.88065V11.075C3.34486 11.183 3.31176 11.2472 3.25828 11.2678C3.20735 11.2884 3.1335 11.2678 3.04692 11.2035C3.04692 11.2035 3.04692 11.2035 0.126053 8.23229C-0.0420177 8.10635 -0.0420177 7.84932 0.126053 7.67968C0.126053 7.67968 0.126053 7.67968 3.04692 4.75214C3.1335 4.66732 3.20735 4.64676 3.25828 4.67246Z" fill="#ED1C24"/>
        <path fill-rule="evenodd" clip-rule="evenodd" d="M6.94179 9.54883C6.94179 9.54883 6.94179 9.54883 9.0987 9.54883C9.35335 9.54883 9.52397 9.71847 9.52397 9.9318C9.52397 9.9318 9.52397 9.9318 9.52397 12.2656C9.52397 12.5201 9.69204 12.6897 9.9034 12.6897H11.0468C11.2582 12.6897 11.3422 12.8156 11.1741 12.9442C11.1741 12.9442 11.1741 12.9442 8.29654 15.8717C8.20996 15.9565 8.10555 16.0002 7.9986 16.0002C7.89419 16.0002 7.78724 15.9565 7.7032 15.8717C7.7032 15.8717 7.7032 15.8717 4.82562 12.9442C4.65501 12.8156 4.73904 12.6897 4.9504 12.6897C4.9504 12.6897 4.9504 12.6897 6.17783 12.6897C6.39174 12.6897 6.55981 12.5201 6.55981 12.2656C6.55981 12.2656 6.55981 12.2656 6.55981 9.9318C6.55981 9.71847 6.73043 9.54883 6.94179 9.54883Z" fill="#ED1C24"/>
    </svg>

    <svg id="money" viewBox="0 0 16 16" fill="none" xmlns="http://www.w3.org/2000/svg">
        <path d="M15 11H1V12H15V11Z" fill="#A4AC14"/>
        <path d="M15 13H1V14H15V13Z" fill="#A4AC14"/>
        <path d="M12 5C11.8022 5 11.6089 5.05865 11.4444 5.16853C11.28 5.27841 11.1518 5.43459 11.0761 5.61732C11.0004 5.80004 10.9806 6.00111 11.0192 6.19509C11.0578 6.38907 11.153 6.56725 11.2929 6.70711C11.4327 6.84696 11.6109 6.9422 11.8049 6.98079C11.9989 7.01937 12.2 6.99957 12.3827 6.92388C12.5654 6.84819 12.7216 6.72002 12.8315 6.55557C12.9414 6.39112 13 6.19778 13 6C13 5.73478 12.8946 5.48043 12.7071 5.29289C12.5196 5.10536 12.2652 5 12 5Z" fill="#A4AC14"/>
        <path d="M8 8C7.60444 8 7.21776 7.8827 6.88886 7.66294C6.55996 7.44318 6.30362 7.13082 6.15224 6.76537C6.00087 6.39992 5.96126 5.99778 6.03843 5.60982C6.1156 5.22186 6.30608 4.86549 6.58579 4.58579C6.86549 4.30608 7.22186 4.1156 7.60982 4.03843C7.99778 3.96126 8.39992 4.00087 8.76537 4.15224C9.13082 4.30362 9.44318 4.55996 9.66294 4.88886C9.8827 5.21776 10 5.60444 10 6C9.99941 6.53025 9.7885 7.03861 9.41356 7.41356C9.03861 7.7885 8.53025 7.99941 8 8ZM8 5C7.80222 5 7.60888 5.05865 7.44443 5.16853C7.27998 5.27841 7.15181 5.43459 7.07612 5.61732C7.00043 5.80004 6.98063 6.00111 7.01922 6.19509C7.0578 6.38907 7.15304 6.56726 7.29289 6.70711C7.43275 6.84696 7.61093 6.9422 7.80491 6.98079C7.99889 7.01937 8.19996 6.99957 8.38268 6.92388C8.56541 6.84819 8.72159 6.72002 8.83147 6.55557C8.94135 6.39112 9 6.19778 9 6C8.99974 5.73487 8.89429 5.48067 8.70682 5.29319C8.51934 5.10571 8.26514 5.00027 8 5Z" fill="#A4AC14"/>
        <path d="M4 5C3.80222 5 3.60888 5.05865 3.44443 5.16853C3.27998 5.27841 3.15181 5.43459 3.07612 5.61732C3.00043 5.80004 2.98063 6.00111 3.01922 6.19509C3.0578 6.38907 3.15304 6.56725 3.29289 6.70711C3.43275 6.84696 3.61093 6.9422 3.80491 6.98079C3.99889 7.01937 4.19996 6.99957 4.38268 6.92388C4.56541 6.84819 4.72159 6.72002 4.83147 6.55557C4.94135 6.39112 5 6.19778 5 6C5 5.73478 4.89464 5.48043 4.70711 5.29289C4.51957 5.10536 4.26522 5 4 5Z" fill="#A4AC14"/>
        <path d="M14 10H2C1.73499 9.99933 1.48103 9.89375 1.29364 9.70636C1.10625 9.51897 1.00067 9.26501 1 9V3C1.00067 2.73499 1.10625 2.48103 1.29364 2.29364C1.48103 2.10625 1.73499 2.00067 2 2H14C14.265 2.00067 14.519 2.10625 14.7064 2.29364C14.8938 2.48103 14.9993 2.73499 15 3V9C14.9996 9.26511 14.8942 9.51925 14.7067 9.70671C14.5193 9.89417 14.2651 9.99964 14 10ZM14 3H2V9H14V3Z" fill="#A4AC14"/>
    </svg>

    <svg id="paymethods" viewBox="0 0 38 10" fill="none" xmlns="http://www.w3.org/2000/svg">
        <path d="M2.25648 9.87326V9.21639C2.25648 8.96459 2.10755 8.80037 1.85225 8.80037C1.7246 8.80037 1.5863 8.84416 1.49056 8.98648C1.4161 8.86606 1.30972 8.80037 1.15016 8.80037C1.04378 8.80037 0.937401 8.83321 0.852299 8.95364V8.82227H0.628906V9.87326H0.852299V9.29302C0.852299 9.10691 0.948039 9.01933 1.09697 9.01933C1.2459 9.01933 1.32036 9.11786 1.32036 9.29302V9.87326H1.54375V9.29302C1.54375 9.10691 1.65013 9.01933 1.78842 9.01933C1.93735 9.01933 2.01181 9.11786 2.01181 9.29302V9.87326H2.25648ZM5.56483 8.82227H5.20314V8.50478H4.97975V8.82227H4.77763V9.03027H4.97975V9.51198C4.97975 9.75283 5.07549 9.89515 5.33079 9.89515C5.42653 9.89515 5.53291 9.86231 5.60738 9.81852L5.54355 9.62146C5.47972 9.66525 5.40526 9.67619 5.35207 9.67619C5.24569 9.67619 5.20314 9.61051 5.20314 9.50103V9.03027H5.56483V8.82227ZM7.45835 8.80037C7.33069 8.80037 7.24559 8.86606 7.1924 8.95364V8.82227H6.96901V9.87326H7.1924V9.28207C7.1924 9.10691 7.26687 9.00838 7.40516 9.00838C7.44771 9.00838 7.5009 9.01933 7.54345 9.03027L7.60728 8.81132C7.56472 8.80037 7.5009 8.80037 7.45835 8.80037ZM4.59679 8.90985C4.49041 8.83321 4.34148 8.80037 4.18192 8.80037C3.92661 8.80037 3.75641 8.93174 3.75641 9.13975C3.75641 9.31492 3.88406 9.41345 4.10745 9.44629L4.21383 9.45724C4.33085 9.47913 4.39467 9.51198 4.39467 9.56672C4.39467 9.64335 4.30957 9.69809 4.16064 9.69809C4.01171 9.69809 3.8947 9.64335 3.82023 9.58861L3.71386 9.76378C3.83087 9.85136 3.99044 9.89515 4.15 9.89515C4.44786 9.89515 4.61807 9.75283 4.61807 9.55577C4.61807 9.36966 4.47977 9.27113 4.26702 9.23828L4.16064 9.22734C4.0649 9.21639 3.99044 9.19449 3.99044 9.1288C3.99044 9.05217 4.0649 9.00838 4.18192 9.00838C4.30957 9.00838 4.43722 9.06312 4.50105 9.09596L4.59679 8.90985ZM10.5327 8.80037C10.405 8.80037 10.3199 8.86606 10.2667 8.95364V8.82227H10.0433V9.87326H10.2667V9.28207C10.2667 9.10691 10.3412 9.00838 10.4795 9.00838C10.522 9.00838 10.5752 9.01933 10.6178 9.03027L10.6816 8.81132C10.639 8.80037 10.5752 8.80037 10.5327 8.80037ZM7.68174 9.34776C7.68174 9.66525 7.89449 9.89515 8.22427 9.89515C8.37319 9.89515 8.47957 9.86231 8.58595 9.77472L8.47957 9.58861C8.39447 9.6543 8.30937 9.68714 8.21363 9.68714C8.03279 9.68714 7.90513 9.55577 7.90513 9.34776C7.90513 9.1507 8.03279 9.01933 8.21363 9.00838C8.30937 9.00838 8.39447 9.04122 8.47957 9.10691L8.58595 8.9208C8.47957 8.83321 8.37319 8.80037 8.22427 8.80037C7.89449 8.80037 7.68174 9.03027 7.68174 9.34776ZM9.74546 9.34776V8.82227H9.52207V8.95364C9.44761 8.85511 9.34123 8.80037 9.20294 8.80037C8.91572 8.80037 8.69233 9.03027 8.69233 9.34776C8.69233 9.66525 8.91572 9.89515 9.20294 9.89515C9.35187 9.89515 9.45824 9.84041 9.52207 9.74188V9.87326H9.74546V9.34776ZM8.92636 9.34776C8.92636 9.16165 9.04337 9.00838 9.23485 9.00838C9.41569 9.00838 9.54335 9.1507 9.54335 9.34776C9.54335 9.53387 9.41569 9.68714 9.23485 9.68714C9.04337 9.67619 8.92636 9.53387 8.92636 9.34776ZM6.25628 8.80037C5.95842 8.80037 5.74567 9.01933 5.74567 9.34776C5.74567 9.67619 5.95842 9.89515 6.26692 9.89515C6.41585 9.89515 6.56477 9.85136 6.68179 9.75283L6.57541 9.58861C6.49031 9.6543 6.38393 9.69809 6.27756 9.69809C6.13926 9.69809 6.00097 9.6324 5.96906 9.44629H6.72434V9.35871C6.73498 9.01933 6.5435 8.80037 6.25628 8.80037ZM6.25628 8.99743C6.39457 8.99743 6.49031 9.08501 6.51159 9.24923H5.9797C6.00097 9.10691 6.09671 8.99743 6.25628 8.99743ZM11.7986 9.34776V8.40625H11.5752V8.95364C11.5007 8.85511 11.3943 8.80037 11.256 8.80037C10.9688 8.80037 10.7454 9.03027 10.7454 9.34776C10.7454 9.66525 10.9688 9.89515 11.256 9.89515C11.405 9.89515 11.5113 9.84041 11.5752 9.74188V9.87326H11.7986V9.34776ZM10.9794 9.34776C10.9794 9.16165 11.0965 9.00838 11.2879 9.00838C11.4688 9.00838 11.5964 9.1507 11.5964 9.34776C11.5964 9.53387 11.4688 9.68714 11.2879 9.68714C11.0965 9.67619 10.9794 9.53387 10.9794 9.34776ZM3.51174 9.34776V8.82227H3.28835V8.95364C3.21388 8.85511 3.1075 8.80037 2.96921 8.80037C2.68199 8.80037 2.4586 9.03027 2.4586 9.34776C2.4586 9.66525 2.68199 9.89515 2.96921 9.89515C3.11814 9.89515 3.22452 9.84041 3.28835 9.74188V9.87326H3.51174V9.34776ZM2.68199 9.34776C2.68199 9.16165 2.79901 9.00838 2.99049 9.00838C3.17133 9.00838 3.29898 9.1507 3.29898 9.34776C3.29898 9.53387 3.17133 9.68714 2.99049 9.68714C2.79901 9.67619 2.68199 9.53387 2.68199 9.34776Z" fill="white"/>
        <path d="M7.87433 0.84375H4.52344V7.04021H7.87433V0.84375Z" fill="#FF5F00"/>
        <path d="M4.7338 3.94121C4.7338 2.68221 5.30824 1.56554 6.19117 0.842981C5.54227 0.317486 4.72316 0 3.82959 0C1.71268 0 0 1.7626 0 3.94121C0 6.11983 1.71268 7.88242 3.82959 7.88242C4.72316 7.88242 5.54227 7.56494 6.19117 7.03944C5.30824 6.32783 4.7338 5.20021 4.7338 3.94121Z" fill="#EB001B"/>
        <path d="M12.3904 3.94121C12.3904 6.11983 10.6777 7.88242 8.5608 7.88242C7.66723 7.88242 6.84812 7.56494 6.19922 7.03944C7.09279 6.31689 7.65659 5.20021 7.65659 3.94121C7.65659 2.68221 7.08215 1.56554 6.19922 0.842981C6.84812 0.317486 7.66723 0 8.5608 0C10.6777 0 12.3904 1.77355 12.3904 3.94121Z" fill="#F79E1B"/>
        <path d="M28.0171 3.2162C28.0053 4.13413 28.8459 4.6464 29.4792 4.95095C30.1298 5.26346 30.3484 5.46384 30.3459 5.74326C30.3409 6.17097 29.8268 6.35971 29.3457 6.36706C28.5063 6.37993 28.0183 6.1434 27.6303 5.96447L27.3279 7.36097C27.7172 7.53806 28.438 7.69248 29.1855 7.69922C30.94 7.69922 32.088 6.84441 32.0942 5.51899C32.101 3.83694 29.7368 3.74379 29.753 2.99193C29.7586 2.76398 29.979 2.52071 30.462 2.45882C30.701 2.42757 31.361 2.40367 32.1091 2.74376L32.4027 1.3926C32.0004 1.24799 31.4833 1.1095 30.8394 1.1095C29.188 1.1095 28.0264 1.97596 28.0171 3.2162ZM35.2245 1.22593C34.9041 1.22593 34.6341 1.41037 34.5136 1.69347L32.0073 7.59995H33.7605L34.1095 6.64832H36.252L36.4544 7.59995H37.9997L36.6512 1.22593H35.2245ZM35.4697 2.94781L35.9757 5.34128H34.59L35.4697 2.94781ZM25.8913 1.22593L24.5093 7.59995H26.18L27.5614 1.22593H25.8913ZM23.4197 1.22593L21.6807 5.56433L20.9773 1.87546C20.8947 1.46368 20.5688 1.22593 20.2068 1.22593H17.364L17.3242 1.41098C17.9078 1.53599 18.5709 1.73759 18.9726 1.95328C19.2184 2.08503 19.2886 2.20023 19.3693 2.51335L20.7016 7.59995H22.4673L25.1742 1.22593H23.4197Z" fill="#A4AC14"/>
    </svg>

    <svg id="thanks-check" viewBox="0 0 49 37" fill="none" xmlns="http://www.w3.org/2000/svg">
        <path d="M1.44922 19.1008L15.7492 33.4008L47.0992 2.05078" stroke-width="4"/>
    </svg>

    <svg id="card" viewBox="0 0 27 20" xmlns="http://www.w3.org/2000/svg">
        <path d="M22.3725 0H3.90658C3.42157 0 3.02846 0.394212 3.02846 0.878119C3.02846 1.36203 3.42157 1.75624 3.90658 1.75624H22.3725C23.6039 1.75624 24.6072 2.75838 24.6072 3.99306V15.34C24.6072 16.5724 23.6039 17.5746 22.3725 17.5746H3.99406C2.7627 17.5746 1.75945 16.5724 1.75945 15.34V3.90558C1.75945 3.88077 1.75843 3.85621 1.75641 3.83192C1.71898 3.38036 1.34043 3.02636 0.879119 3.02636C0.395212 3.02636 0.00210718 3.41946 0.00210718 3.90558V15.34C0.00210718 17.5424 1.79267 19.3319 3.99406 19.3319H22.3725C24.5739 19.3319 26.3645 17.5424 26.3645 15.34V3.99306C26.3645 1.78946 24.5739 0 22.3725 0ZM19.4215 12.4753C18.8878 12.4753 18.4559 12.0423 18.4559 11.5119C18.4559 11.0247 18.0617 10.6316 17.5767 10.6316C17.0917 10.6316 16.6985 11.0247 16.6985 11.5119C16.6985 12.7023 17.4737 13.7077 18.5423 14.0754V14.5726C18.5423 15.0576 18.9365 15.4529 19.4215 15.4529C19.9076 15.4529 20.2996 15.0576 20.2996 14.5726V14.0754C21.3693 13.7077 22.1433 12.7023 22.1433 11.5119C22.1433 10.0081 20.923 8.78673 19.4215 8.78673C18.8878 8.78673 18.4559 8.35376 18.4559 7.82224C18.4559 7.28961 18.8878 6.85664 19.4215 6.85664C19.953 6.85664 20.386 7.28961 20.386 7.82224C20.386 8.30725 20.7791 8.70146 21.2652 8.70146C21.7502 8.70146 22.1433 8.30725 22.1433 7.82224C22.1433 6.62963 21.3693 5.62638 20.2996 5.25764V4.75823C20.2996 4.27322 19.9076 3.879 19.4215 3.879C18.9365 3.879 18.5423 4.27322 18.5423 4.75823V5.25764C17.4737 5.62638 16.6985 6.62963 16.6985 7.82224C16.6985 9.32379 17.9199 10.5441 19.4215 10.5441C19.953 10.5441 20.386 10.977 20.386 11.5119C20.386 12.0423 19.953 12.4753 19.4215 12.4753ZM4.39492 14.9391H13.1828C13.6678 14.9391 14.0609 14.5438 14.0609 14.0599C14.0609 13.576 13.6678 13.1818 13.1828 13.1818H4.39492C3.9099 13.1818 3.5168 13.576 3.5168 14.0599C3.5168 14.5438 3.9099 14.9391 4.39492 14.9391ZM4.39492 6.15126H13.1828C13.6678 6.15126 14.0609 5.75705 14.0609 5.27314C14.0609 4.78702 13.6678 4.39392 13.1828 4.39392H4.39492C3.9099 4.39392 3.5168 4.78702 3.5168 5.27314C3.5168 5.75705 3.9099 6.15126 4.39492 6.15126ZM4.39492 10.5441H13.1828C13.6678 10.5441 14.0609 10.151 14.0609 9.66485C14.0609 9.17983 13.6678 8.78673 13.1828 8.78673H4.39492C3.9099 8.78673 3.5168 9.17983 3.5168 9.66485C3.5168 10.151 3.9099 10.5441 4.39492 10.5441Z" />
        <path d="M3.02846 0.878119C3.02846 0.394212 3.42157 0 3.90658 0C0.670674 0 -0.0446959 2.60372 0.00210718 3.90558C0.00210718 3.41946 0.395212 3.02636 0.879119 3.02636C1.34043 3.02636 1.71898 3.38036 1.75641 3.83192C1.74272 3.12521 2.14652 1.82743 3.90658 1.75624C3.42157 1.75624 3.02846 1.36203 3.02846 0.878119Z" />
    </svg>

    <svg id="user-check" viewBox="0 0 32 32" xmlns="http://www.w3.org/2000/svg">
        <path d="M12 4C12.9889 4 13.9556 4.29324 14.7779 4.84265C15.6001 5.39206 16.241 6.17295 16.6194 7.08658C16.9978 8.00021 17.0969 9.00555 16.9039 9.97545C16.711 10.9454 16.2348 11.8363 15.5355 12.5355C14.8363 13.2348 13.9454 13.711 12.9755 13.9039C12.0055 14.0969 11.0002 13.9978 10.0866 13.6194C9.17296 13.241 8.39206 12.6001 7.84266 11.7779C7.29325 10.9556 7 9.98891 7 9C7 7.67392 7.52679 6.40215 8.46447 5.46447C9.40215 4.52678 10.6739 4 12 4ZM12 2C10.6155 2 9.26216 2.41054 8.11101 3.17971C6.95987 3.94888 6.06266 5.04213 5.53285 6.32122C5.00303 7.6003 4.86441 9.00776 5.13451 10.3656C5.4046 11.7235 6.07129 12.9708 7.05026 13.9497C8.02922 14.9287 9.2765 15.5954 10.6344 15.8655C11.9922 16.1356 13.3997 15.997 14.6788 15.4672C15.9579 14.9373 17.0511 14.0401 17.8203 12.889C18.5895 11.7378 19 10.3845 19 9C19 7.14348 18.2625 5.36301 16.9497 4.05025C15.637 2.7375 13.8565 2 12 2Z" />
        <path d="M22 30H20V25C20 23.6739 19.4732 22.4021 18.5355 21.4645C17.5979 20.5268 16.3261 20 15 20H9C7.67392 20 6.40215 20.5268 5.46447 21.4645C4.52678 22.4021 4 23.6739 4 25V30H2V25C2 23.1435 2.7375 21.363 4.05025 20.0503C5.36301 18.7375 7.14348 18 9 18H15C16.8565 18 18.637 18.7375 19.9497 20.0503C21.2625 21.363 22 23.1435 22 25V30Z" />
        <path d="M25 16.1798L22.41 13.5898L21 14.9998L25 18.9998L32 11.9998L30.59 10.5898L25 16.1798Z" />
    </svg>

    <svg id="express-car" viewBox="0 0 32 32" xmlns="http://www.w3.org/2000/svg">
        <path d="M16 16H4V18H16V16Z"/>
        <path d="M12 11H2V13H12V11Z"/>
        <path d="M29.9184 16.6064L26.9184 9.6064C26.8415 9.42638 26.7134 9.27293 26.55 9.16511C26.3867 9.0573 26.1952 8.99988 25.9995 9H22.9995V7C22.9995 6.73478 22.8941 6.48043 22.7066 6.29289C22.519 6.10536 22.2647 6 21.9995 6H5.99946V8H20.9995V20.5562C20.5438 20.8208 20.1451 21.173 19.8262 21.5924C19.5074 22.0118 19.2747 22.4902 19.1416 23H12.8574C12.614 22.0573 12.0351 21.2358 11.2294 20.6894C10.4236 20.143 9.44617 19.9092 8.48036 20.0319C7.51454 20.1546 6.62662 20.6253 5.98304 21.3558C5.33945 22.0863 4.98438 23.0264 4.98438 24C4.98437 24.9736 5.33945 25.9137 5.98304 26.6442C6.62662 27.3747 7.51454 27.8454 8.48036 27.9681C9.44617 28.0908 10.4236 27.857 11.2294 27.3106C12.0351 26.7642 12.614 25.9427 12.8574 25H19.1416C19.3596 25.8578 19.8573 26.6184 20.556 27.1617C21.2546 27.7049 22.1144 27.9999 22.9995 27.9999C23.8845 27.9999 24.7443 27.7049 25.443 27.1617C26.1416 26.6184 26.6393 25.8578 26.8574 25H28.9995C29.2647 25 29.519 24.8946 29.7066 24.7071C29.8941 24.5196 29.9995 24.2652 29.9995 24V17C29.9994 16.8647 29.9718 16.7307 29.9184 16.6064ZM8.99946 26C8.6039 26 8.21722 25.8827 7.88832 25.6629C7.55942 25.4432 7.30307 25.1308 7.1517 24.7654C7.00032 24.3999 6.96072 23.9978 7.03789 23.6098C7.11506 23.2219 7.30554 22.8655 7.58524 22.5858C7.86495 22.3061 8.22132 22.1156 8.60928 22.0384C8.99724 21.9613 9.39937 22.0009 9.76482 22.1522C10.1303 22.3036 10.4426 22.56 10.6624 22.8889C10.8822 23.2178 10.9995 23.6044 10.9995 24C10.9988 24.5302 10.7879 25.0386 10.413 25.4135C10.0381 25.7885 9.5297 25.9994 8.99946 26ZM22.9995 11H25.3403L27.4834 16H22.9995V11ZM22.9995 26C22.6039 26 22.2172 25.8827 21.8883 25.6629C21.5594 25.4432 21.3031 25.1308 21.1517 24.7654C21.0003 24.3999 20.9607 23.9978 21.0379 23.6098C21.1151 23.2219 21.3055 22.8655 21.5852 22.5858C21.865 22.3061 22.2213 22.1156 22.6093 22.0384C22.9972 21.9613 23.3994 22.0009 23.7648 22.1522C24.1303 22.3036 24.4426 22.56 24.6624 22.8889C24.8822 23.2178 24.9995 23.6044 24.9995 24C24.9988 24.5302 24.7879 25.0386 24.413 25.4135C24.0381 25.7885 23.5297 25.9994 22.9995 26ZM27.9995 23H26.8574C26.637 22.1435 26.1387 21.3843 25.4406 20.8414C24.7424 20.2985 23.8839 20.0026 22.9995 20V18H27.9995V23Z" />
    </svg>

    <svg id="note" viewBox="0 0 32 32" xmlns="http://www.w3.org/2000/svg">
        <path d="M26 2H8C7.46957 2 6.96086 2.21071 6.58579 2.58579C6.21071 2.96086 6 3.46957 6 4V8H4V10H6V15H4V17H6V22H4V24H6V28C6 28.5304 6.21071 29.0391 6.58579 29.4142C6.96086 29.7893 7.46957 30 8 30H26C26.5304 30 27.0391 29.7893 27.4142 29.4142C27.7893 29.0391 28 28.5304 28 28V4C28 3.46957 27.7893 2.96086 27.4142 2.58579C27.0391 2.21071 26.5304 2 26 2ZM26 28H8V24H10V22H8V17H10V15H8V10H10V8H8V4H26V28Z" />
        <path d="M22 8H14V10H22V8Z" />
        <path d="M22 15H14V17H22V15Z" />
        <path d="M22 22H14V24H22V22Z" />
    </svg>

    <svg id="achive" viewBox="0 0 32 32" xmlns="http://www.w3.org/2000/svg">
        <path d="M23 2L24.593 5L28 5.414L25.5 7.667L26 11L23 9.125L20 11L20.5 7.667L18 5.414L21.5 5L23 2Z" />
        <path d="M22.7174 13.2484L20.7799 12.7504C20.4325 14.0887 19.6964 15.294 18.6643 16.2141C17.6323 17.1342 16.3507 17.7277 14.9815 17.9198C13.6123 18.1118 12.2168 17.8938 10.9715 17.2931C9.72616 16.6925 8.68678 15.7362 7.98466 14.5451C7.28255 13.354 6.9492 11.9816 7.02675 10.6011C7.10429 9.22068 7.58923 7.89418 8.42032 6.78922C9.25141 5.68425 10.3913 4.8504 11.6961 4.393C13.0009 3.9356 14.412 3.87518 15.7511 4.21936L16.2501 2.28286C14.2984 1.77595 12.233 1.93987 10.3858 2.74828C8.5385 3.5567 7.01665 4.96267 6.06477 6.74025C5.11289 8.51784 4.78625 10.5638 5.13733 12.5494C5.48842 14.535 6.49684 16.345 8.00056 17.6884V29.9994L14.0006 25.9994L20.0006 29.9994V17.7072C21.3286 16.5235 22.2743 14.9713 22.7174 13.2484ZM18.0006 26.2621L14.0006 23.5956L10.0006 26.2621V19.0494C11.2416 19.6729 12.611 19.9981 13.9998 19.9992C15.3887 20.0002 16.7586 19.6771 18.0006 19.0556V26.2621Z" />
    </svg>

    <svg id="post" viewBox="0 0 32 32" xmlns="http://www.w3.org/2000/svg">
        <path fill-rule="evenodd" clip-rule="evenodd" d="M25.6423 9.47248C25.739 9.44164 25.8664 9.50333 25.9937 9.67297C25.9937 9.67297 25.9937 9.67297 31.7489 15.3585C32.0851 15.6978 32.0851 16.2119 31.7489 16.4638C31.7489 16.4638 31.7489 16.4638 25.9937 22.2367C25.8664 22.4063 25.739 22.4475 25.6423 22.396C25.5455 22.3446 25.4844 22.1956 25.4844 21.9797V9.84261C25.4844 9.63185 25.5455 9.50333 25.6423 9.47248Z" />
        <path fill-rule="evenodd" clip-rule="evenodd" d="M15.802 0H16.2095L16.6017 0.164501C16.6017 0.164501 16.6017 0.164501 22.525 6.10708C22.7796 6.44636 22.6931 6.70339 22.2703 6.70339C22.2703 6.70339 22.2703 6.70339 19.8154 6.70339C19.3927 6.70339 19.0566 7.04267 19.0566 7.46935C19.0566 7.46935 19.0566 7.46935 19.0566 11.88C19.0566 12.3067 18.7153 12.646 18.206 12.646C18.206 12.646 18.206 12.646 13.8921 12.646C13.4694 12.646 13.1281 12.3067 13.1281 11.88C13.1281 11.88 13.1281 11.88 13.1281 7.46935C13.1281 7.04267 12.792 6.70339 12.3642 6.70339H9.7412C9.31847 6.70339 9.23189 6.44636 9.48655 6.10708C9.48655 6.10708 9.48655 6.10708 15.415 0.164501L15.802 0Z" />
        <path fill-rule="evenodd" clip-rule="evenodd" d="M6.51667 9.34492C6.62363 9.39633 6.68984 9.54541 6.68984 9.76131V22.1503C6.68984 22.3662 6.62363 22.4947 6.51667 22.5358C6.41481 22.5769 6.26711 22.5358 6.09394 22.4073C6.09394 22.4073 6.09394 22.4073 0.25211 16.4647C-0.0840368 16.2128 -0.0840368 15.6988 0.25211 15.3595C0.25211 15.3595 0.252111 15.3595 6.09394 9.50428C6.26711 9.33464 6.41481 9.29352 6.51667 9.34492Z" />
        <path fill-rule="evenodd" clip-rule="evenodd" d="M13.8837 19.0977C13.8837 19.0977 13.8837 19.0977 18.1975 19.0977C18.7069 19.0977 19.0481 19.4369 19.0481 19.8636C19.0481 19.8636 19.0481 19.8636 19.0481 24.5313C19.0481 25.0402 19.3842 25.3795 19.807 25.3795H22.0938C22.5165 25.3795 22.6846 25.6314 22.3485 25.8884C22.3485 25.8884 22.3485 25.8884 16.5932 31.7436C16.42 31.9133 16.2112 32.0007 15.9973 32.0007C15.7885 32.0007 15.5746 31.9133 15.4065 31.7436C15.4065 31.7436 15.4065 31.7436 9.65125 25.8884C9.31001 25.6314 9.47808 25.3795 9.90082 25.3795C9.90082 25.3795 9.90081 25.3795 12.3557 25.3795C12.7835 25.3795 13.1197 25.0402 13.1197 24.5313C13.1197 24.5313 13.1197 24.5313 13.1197 19.8636C13.1197 19.4369 13.4609 19.0977 13.8837 19.0977Z" />
    </svg>

    <svg id="schedule" viewBox="0 0 32 32" xmlns="http://www.w3.org/2000/svg">
        <path d="M21 30C19.4178 30 17.871 29.5308 16.5554 28.6518C15.2398 27.7727 14.2145 26.5233 13.609 25.0615C13.0035 23.5997 12.845 21.9911 13.1537 20.4393C13.4624 18.8874 14.2243 17.462 15.3431 16.3431C16.462 15.2243 17.8874 14.4624 19.4393 14.1537C20.9911 13.845 22.5997 14.0035 24.0615 14.609C25.5233 15.2145 26.7727 16.2398 27.6518 17.5554C28.5308 18.871 29 20.4178 29 22C29 24.1217 28.1571 26.1566 26.6569 27.6569C25.1566 29.1571 23.1217 30 21 30ZM21 16C19.8133 16 18.6533 16.3519 17.6666 17.0112C16.6799 17.6705 15.9109 18.6075 15.4567 19.7039C15.0026 20.8003 14.8838 22.0067 15.1153 23.1705C15.3468 24.3344 15.9182 25.4035 16.7574 26.2426C17.5965 27.0818 18.6656 27.6532 19.8295 27.8847C20.9933 28.1162 22.1997 27.9974 23.2961 27.5433C24.3925 27.0892 25.3295 26.3201 25.9888 25.3334C26.6481 24.3467 27 23.1867 27 22C27 20.4087 26.3679 18.8826 25.2426 17.7574C24.1174 16.6321 22.5913 16 21 16Z" />
        <path d="M22.59 25L20 22.41V18H22V21.59L24 23.59L22.59 25Z" />
        <path d="M28 6C28 5.46957 27.7893 4.96086 27.4142 4.58579C27.0391 4.21071 26.5304 4 26 4H22V2H20V4H12V2H10V4H6C5.46957 4 4.96086 4.21071 4.58579 4.58579C4.21071 4.96086 4 5.46957 4 6V26C4 26.5304 4.21071 27.0391 4.58579 27.4142C4.96086 27.7893 5.46957 28 6 28H10V26H6V6H10V8H12V6H20V8H22V6H26V12H28V6Z" />
    </svg>

    <svg id="pen" viewBox="0 0 32 32" xmlns="http://www.w3.org/2000/svg">
        <path d="M28.8281 3.17284C28.0664 2.44514 27.0535 2.03906 26 2.03906C24.9466 2.03906 23.9336 2.44514 23.1719 3.17284L4.05003 22.2929C3.39807 22.9414 2.88119 23.7127 2.52931 24.5622C2.17743 25.4117 1.99753 26.3226 2.00003 27.2421V30.0009H4.75593C5.67559 30.0036 6.58665 29.8238 7.43633 29.4719C8.28602 29.12 9.05744 28.6031 9.70593 27.9509L28.8281 8.82954C29.1997 8.45818 29.4944 8.01725 29.6955 7.53195C29.8965 7.04666 30 6.5265 30 6.00119C30 5.47588 29.8965 4.95573 29.6955 4.47043C29.4944 3.98513 29.1997 3.54421 28.8281 3.17284ZM10.91 18.2609L13.7386 21.0895L11.6172 23.2109L8.78863 20.3827L10.91 18.2609ZM8.29153 26.5365C7.82833 27.0023 7.27733 27.3716 6.67043 27.623C6.06354 27.8743 5.41281 28.0028 4.75593 28.0009H4.00003V27.2421C3.99826 26.5853 4.12678 25.9347 4.37814 25.3279C4.62951 24.7211 4.99872 24.1702 5.46443 23.707L7.37443 21.797L10.203 24.6251L8.29153 26.5365ZM27.4141 7.41504L15.1528 19.6757L12.3242 16.8471L24.5859 4.58714C24.9668 4.22332 25.4733 4.0203 26 4.0203C26.5268 4.0203 27.0332 4.22332 27.4141 4.58714C27.5999 4.77282 27.7472 4.99327 27.8477 5.23591C27.9483 5.47854 28 5.73861 28 6.00124C28 6.26388 27.9483 6.52394 27.8477 6.76657C27.7472 7.00921 27.5999 7.22966 27.4141 7.41534V7.41504Z" />
        <path d="M6.5 15C5.8078 15.0001 5.1311 14.795 4.55549 14.4105C3.97989 14.026 3.53124 13.4795 3.26629 12.84C3.00134 12.2005 2.932 11.4968 3.06703 10.8179C3.20206 10.139 3.53541 9.5154 4.0249 9.02597L7.5254 5.52597C7.80614 5.24443 7.96379 4.86306 7.96379 4.46547C7.96379 4.06788 7.80614 3.68651 7.5254 3.40497C7.23953 3.13232 6.85965 2.98021 6.4646 2.98021C6.06955 2.98021 5.68967 3.13232 5.4038 3.40497L3.415 5.39357L2 3.97997L3.99 1.99147C4.65685 1.35507 5.54321 1 6.465 1C7.38679 1 8.27315 1.35507 8.94 1.99147C9.59519 2.64832 9.96314 3.53821 9.96314 4.46597C9.96314 5.39373 9.59519 6.28362 8.94 6.94047L5.439 10.44C5.15826 10.7215 5.00061 11.1029 5.00061 11.5005C5.00061 11.8981 5.15826 12.2794 5.439 12.561C5.72486 12.8336 6.10472 12.9857 6.49975 12.9857C6.89478 12.9857 7.27464 12.8336 7.5605 12.561L11.5854 8.53667L13 9.95067L8.9746 13.975C8.65043 14.301 8.26479 14.5595 7.84001 14.7354C7.41524 14.9114 6.95977 15.0013 6.5 15Z" />
    </svg>

    <svg id="peoples" viewBox="0 0 32 32" xmlns="http://www.w3.org/2000/svg">
        <g clip-path="url(#clip0_672_40468)">
            <path d="M26.96 29.9999L25.0385 23.2746C24.9845 23.0851 24.9877 22.8838 25.0476 22.6961C25.1075 22.5083 25.2216 22.3424 25.3754 22.2192L29.874 18.6199L28.52 13.2013L25.7818 16.6247C25.6879 16.7418 25.5689 16.8363 25.4336 16.9012C25.2983 16.9662 25.1501 16.9999 25 16.9999H20V14.9999H24.52L28.2193 10.3751C28.3357 10.2297 28.4905 10.1196 28.6662 10.0574C28.8418 9.99517 29.0314 9.98327 29.2134 10.023C29.3955 10.0628 29.5628 10.1526 29.6965 10.2824C29.8302 10.4122 29.925 10.5768 29.9702 10.7575L31.9702 18.7575C32.0168 18.9432 32.0091 19.1383 31.948 19.3197C31.8869 19.5011 31.775 19.6611 31.6255 19.7807L27.1455 23.3652L28.8844 29.4506L26.96 29.9999Z" />
            <path d="M23 5.5C23 4.80777 23.2053 4.13108 23.5899 3.55551C23.9744 2.97993 24.5211 2.53133 25.1606 2.26642C25.8001 2.00152 26.5039 1.9322 27.1828 2.06725C27.8617 2.2023 28.4854 2.53564 28.9749 3.02513C29.4644 3.51461 29.7977 4.13825 29.9327 4.81719C30.0678 5.49612 29.9985 6.19985 29.7336 6.83939C29.4687 7.47894 29.0201 8.02556 28.4445 8.41015C27.8689 8.79473 27.1922 9 26.5 9C25.5721 8.99889 24.6825 8.62978 24.0264 7.97365C23.3702 7.31751 23.0011 6.42792 23 5.5ZM25 5.5C25 5.79667 25.088 6.08668 25.2528 6.33336C25.4176 6.58003 25.6519 6.77229 25.926 6.88582C26.2001 6.99935 26.5017 7.02906 26.7926 6.97118C27.0836 6.9133 27.3509 6.77044 27.5607 6.56066C27.7704 6.35088 27.9133 6.08361 27.9712 5.79264C28.0291 5.50167 27.9994 5.20007 27.8858 4.92598C27.7723 4.65189 27.58 4.41762 27.3334 4.2528C27.0867 4.08798 26.7967 4 26.5 4C26.1023 4.00045 25.721 4.15863 25.4398 4.43984C25.1586 4.72105 25.0004 5.10231 25 5.5Z" />
            <path d="M20.0039 19C19.7407 19 19.4802 18.9482 19.237 18.8475C18.9939 18.7468 18.773 18.5991 18.5869 18.4131C18.4009 18.227 18.2532 18.0061 18.1525 17.763C18.0518 17.5198 18 17.2593 18 16.9961V15.0039C18 14.7407 18.0518 14.4802 18.1525 14.237C18.2532 13.9939 18.4009 13.773 18.5869 13.5869C18.773 13.4008 18.9939 13.2532 19.237 13.1525C19.4802 13.0518 19.7407 13 20.0039 13H22V10H10V13H11.9961C12.5276 13 13.0373 13.2111 13.4131 13.5869C13.7889 13.9627 14 14.4724 14 15.0039V16.9961C14 17.2593 13.9482 17.5198 13.8475 17.763C13.7468 18.0061 13.5992 18.227 13.4131 18.4131C13.227 18.5991 13.0061 18.7468 12.763 18.8475C12.5198 18.9482 12.2593 19 11.9961 19H10V22H22V19H20.0039Z" />
            <path d="M5.03978 29.9999L6.96128 23.2746C7.01524 23.0851 7.01205 22.8838 6.95212 22.696C6.89219 22.5083 6.77818 22.3424 6.62438 22.2191L2.12578 18.6199L3.48028 13.2014L6.21848 16.6248C6.31236 16.7418 6.43129 16.8363 6.5665 16.9012C6.70172 16.9661 6.84978 16.9998 6.99978 16.9999H11.9998V14.9999H7.48028L3.78098 10.3751C3.66454 10.2297 3.50977 10.1196 3.33411 10.0574C3.15846 9.99517 2.96892 9.98327 2.78687 10.023C2.60481 10.0628 2.43749 10.1526 2.30377 10.2824C2.17005 10.4122 2.07526 10.5768 2.03008 10.7575L0.0300784 18.7575C-0.0165405 18.9432 -0.00883644 19.1383 0.0522736 19.3197C0.113384 19.5011 0.225326 19.6611 0.374778 19.7807L4.85528 23.3651L3.11628 29.4506L5.03978 29.9999Z" />
            <path d="M5.5 9C4.80777 9 4.13108 8.79473 3.55551 8.41015C2.97993 8.02556 2.53133 7.47894 2.26642 6.83939C2.00152 6.19985 1.9322 5.49612 2.06725 4.81719C2.2023 4.13825 2.53564 3.51461 3.02513 3.02513C3.51461 2.53564 4.13825 2.2023 4.81719 2.06725C5.49612 1.9322 6.19985 2.00152 6.83939 2.26642C7.47894 2.53133 8.02556 2.97993 8.41015 3.55551C8.79473 4.13108 9 4.80777 9 5.5C8.99889 6.42792 8.62978 7.31751 7.97365 7.97365C7.31751 8.62978 6.42792 8.99889 5.5 9ZM5.5 4C5.20333 4 4.91332 4.08798 4.66665 4.2528C4.41997 4.41762 4.22771 4.65189 4.11418 4.92598C4.00065 5.20007 3.97095 5.50167 4.02882 5.79264C4.0867 6.08361 4.22956 6.35088 4.43934 6.56066C4.64912 6.77044 4.91639 6.9133 5.20737 6.97118C5.49834 7.02906 5.79994 6.99935 6.07403 6.88582C6.34812 6.77229 6.58238 6.58003 6.74721 6.33336C6.91203 6.08668 7 5.79667 7 5.5C6.99955 5.10231 6.84137 4.72105 6.56016 4.43984C6.27896 4.15863 5.89769 4.00045 5.5 4Z" />
        </g>
        <defs>
            <clipPath id="clip0_672_40468">
                <rect width="32" height="32" fill="white"/>
            </clipPath>
        </defs>
    </svg>

    <svg id="filter" viewBox="0 0 18 17" xmlns="http://www.w3.org/2000/svg">
        <path d="M6.9375 16.375C6.52958 16.375 6.13081 16.254 5.79164 16.0274C5.45246 15.8008 5.18811 15.4787 5.032 15.1018C4.87589 14.7249 4.83505 14.3102 4.91463 13.9101C4.99421 13.51 5.19065 13.1425 5.47909 12.8541C5.76754 12.5656 6.13504 12.3692 6.53513 12.2896C6.93521 12.21 7.34991 12.2509 7.72679 12.407C8.10366 12.5631 8.42578 12.8275 8.65241 13.1666C8.87904 13.5058 9 13.9046 9 14.3125C9 14.8595 8.7827 15.3841 8.39591 15.7709C8.00912 16.1577 7.48451 16.375 6.9375 16.375ZM6.9375 13.625C6.80153 13.625 6.66861 13.6653 6.55555 13.7409C6.44249 13.8164 6.35437 13.9238 6.30233 14.0494C6.2503 14.175 6.23668 14.3133 6.26321 14.4466C6.28974 14.58 6.35522 14.7025 6.45137 14.7986C6.54751 14.8948 6.67001 14.9603 6.80338 14.9868C6.93674 15.0133 7.07497 14.9997 7.2006 14.9477C7.32622 14.8956 7.43359 14.8075 7.50914 14.6945C7.58468 14.5814 7.625 14.4485 7.625 14.3125C7.625 14.1302 7.55257 13.9553 7.42364 13.8264C7.29471 13.6974 7.11984 13.625 6.9375 13.625Z" />
        <rect y="13.8125" width="6" height="1.5"/>
        <rect x="8" y="13.8125" width="10" height="1.5" />
        <path d="M11.0625 10.25C11.4704 10.25 11.8692 10.129 12.2084 9.90241C12.5475 9.67578 12.8119 9.35366 12.968 8.97679C13.1241 8.59991 13.165 8.18521 13.0854 7.78513C13.0058 7.38504 12.8094 7.01754 12.5209 6.72909C12.2325 6.44065 11.865 6.24421 11.4649 6.16463C11.0648 6.08505 10.6501 6.12589 10.2732 6.282C9.89634 6.43811 9.57422 6.70246 9.34759 7.04164C9.12096 7.38081 9 7.77958 9 8.1875C9 8.73451 9.2173 9.25912 9.60409 9.64591C9.99088 10.0327 10.5155 10.25 11.0625 10.25ZM11.0625 7.5C11.1985 7.5 11.3314 7.54032 11.4445 7.61587C11.5575 7.69141 11.6456 7.79878 11.6977 7.92441C11.7497 8.05003 11.7633 8.18826 11.7368 8.32163C11.7103 8.45499 11.6448 8.57749 11.5486 8.67364C11.4525 8.76979 11.33 8.83526 11.1966 8.86179C11.0633 8.88832 10.925 8.8747 10.7994 8.82267C10.6738 8.77063 10.5664 8.68251 10.4909 8.56946C10.4153 8.4564 10.375 8.32348 10.375 8.1875C10.375 8.00516 10.4474 7.8303 10.5764 7.70136C10.7053 7.57243 10.8802 7.5 11.0625 7.5Z" />
        <rect width="6" height="1.5" transform="matrix(-1 0 0 1 18 7.6875)" />
        <rect width="10" height="1.5" transform="matrix(-1 0 0 1 10 7.6875)" />
        <path d="M6.9375 4.125C6.52958 4.125 6.13081 4.00404 5.79164 3.77741C5.45246 3.55078 5.18811 3.22866 5.032 2.85179C4.87589 2.47491 4.83505 2.06021 4.91463 1.66013C4.99421 1.26004 5.19065 0.892539 5.47909 0.604093C5.76754 0.315647 6.13504 0.119213 6.53513 0.0396313C6.93521 -0.0399507 7.34991 0.000893652 7.72679 0.156999C8.10366 0.313105 8.42578 0.577462 8.65241 0.916638C8.87904 1.25581 9 1.65458 9 2.0625C9 2.60951 8.7827 3.13412 8.39591 3.52091C8.00912 3.9077 7.48451 4.125 6.9375 4.125ZM6.9375 1.375C6.80153 1.375 6.66861 1.41532 6.55555 1.49087C6.44249 1.56641 6.35437 1.67378 6.30233 1.79941C6.2503 1.92503 6.23668 2.06326 6.26321 2.19663C6.28974 2.32999 6.35522 2.45249 6.45137 2.54864C6.54751 2.64479 6.67001 2.71026 6.80338 2.73679C6.93674 2.76332 7.07497 2.7497 7.2006 2.69767C7.32622 2.64563 7.43359 2.55751 7.50914 2.44446C7.58468 2.3314 7.625 2.19848 7.625 2.0625C7.625 1.88016 7.55257 1.7053 7.42364 1.57636C7.29471 1.44743 7.11984 1.375 6.9375 1.375Z" />
        <rect y="1.5625" width="6" height="1.5" />
        <rect x="8" y="1.5625" width="10" height="1.5" />
    </svg>

    <svg id="sort" viewBox="0 0 24 24" xmlns="http://www.w3.org/2000/svg">
        <path d="M13.5 16.5L14.5605 15.4395L17.25 18.129V3H18.75V18.129L21.4395 15.4395L22.5 16.5L18 21L13.5 16.5Z" />
        <path d="M12 13.5H1.5V15H12V13.5Z" />
        <path d="M12 9H4.5V10.5H12V9Z" />
        <path d="M12 4.5H7.5V6H12V4.5Z" />
    </svg>

</svg>