<svg width="17" height="32" viewBox="0 0 17 32" fill="none" xmlns="http://www.w3.org/2000/svg">
<path d="M12.1737 17.9195H14.7231V16.6387H10.8848V17.9114V17.9154V19.2003H12.1777V17.9195H12.1737ZM11.5272 19.0225C11.2726 19.0225 11.0625 18.8164 11.0625 18.5579C11.0625 18.3033 11.2686 18.0932 11.5272 18.0932C11.7817 18.0932 11.9918 18.2993 11.9918 18.5579C11.9878 18.8164 11.7817 19.0225 11.5272 19.0225Z" fill="#A4AC14"/>
<path d="M7.9944 8.00065C8.72921 8.00065 9.33366 7.41068 9.33366 6.66732C9.33366 5.93575 8.74107 5.33398 7.9944 5.33398C7.24773 5.33398 6.66699 5.92396 6.66699 6.66732C6.66699 7.39888 7.25958 8.00065 7.9944 8.00065Z" fill="#A4AC14"/>
<path d="M0 0V32H16.6384V0H0ZM15.3616 30.7192H1.28081V1.28081H15.3616V30.7192Z" fill="#A4AC14"/>
</svg>
