<svg width="20" height="20" viewBox="0 0 20 20" fill="none" xmlns="http://www.w3.org/2000/svg">
<path d="M19.5225 11.9169L18.1077 10.6582L18.0602 10.6149V9.37356L18.1106 9.33026L19.5432 8.10912C20.0356 7.68764 20.1424 6.98326 19.7983 6.44053L18.0365 3.53349C17.7962 3.12933 17.3513 2.87818 16.8738 2.87818H16.8619C16.7196 2.87818 16.5772 2.90127 16.4407 2.94457L14.6285 3.53926L14.5603 3.56236L14.501 3.52194C14.1955 3.32275 13.8722 3.14376 13.54 2.98788L13.4747 2.95612L13.4599 2.88684L13.0802 1.05658C12.9527 0.444573 12.398 0 11.7574 0C11.7485 0 11.7396 0 11.7307 0H8.23076C8.22186 0 8.21296 0 8.20407 0C7.5634 0 7.00875 0.444573 6.88418 1.0537L6.50749 2.88684L6.49266 2.95612L6.42741 2.98788C6.09521 3.14376 5.76895 3.32564 5.46048 3.52194L5.3982 3.56236L5.32701 3.53637L3.55332 2.9157C3.44358 2.88972 3.33384 2.87529 3.22113 2.87529C3.19147 2.87529 3.15884 2.87529 3.12918 2.87818H3.12325H3.11732C2.63978 2.87818 2.19488 3.12933 1.95463 3.53349L0.195772 6.44053C-0.127526 6.98037 -0.0118503 7.67032 0.471613 8.08314L1.88345 9.33892L1.9309 9.38222V10.6236L1.88048 10.6669L0.468647 11.888C-0.0296465 12.3066 -0.145322 13.0081 0.192806 13.5595L1.9576 16.4665C2.19785 16.8707 2.64275 17.1218 3.12028 17.1218H3.13215C3.27452 17.1218 3.41689 17.0987 3.55332 17.0554L5.36557 16.4607L5.43379 16.4376L5.49311 16.4781C5.79861 16.6773 6.12191 16.8562 6.4541 17.0121L6.51936 17.0439L6.53419 17.1132L6.91384 18.9434C7.03841 19.5554 7.59306 19.9971 8.23373 19.9971C8.24262 19.9971 8.25152 19.9971 8.26042 19.9971H11.79C11.7989 19.9971 11.8078 19.9971 11.8167 19.9971C12.4574 19.9971 13.012 19.5525 13.1366 18.9434L13.5162 17.1103L13.5311 17.041L13.5963 17.0092C13.9285 16.8534 14.2548 16.6715 14.5632 16.4752L14.6226 16.4376L14.6908 16.4607L16.4971 17.0554C16.6306 17.0987 16.7729 17.1218 16.9153 17.1218H16.9242C17.4047 17.1218 17.8496 16.8707 18.0899 16.4665L19.7924 13.5624C20.1216 13.0196 20.0059 12.3297 19.5225 11.9169ZM18.7631 12.9792L17.0013 15.8863L16.939 15.9873L16.8263 15.9498L14.3438 15.1328C13.7654 15.5976 13.1188 15.9613 12.4188 16.2182L11.9057 18.7471L11.8819 18.8626H8.11508L8.09136 18.7471L7.57823 16.2471C6.88418 15.9844 6.24055 15.6207 5.66217 15.1617L3.1707 15.9498L3.058 15.9844L2.99867 15.8834L1.23092 12.9792L1.16863 12.8753L1.26058 12.7973L3.23003 11.1057C3.10842 10.3868 3.10842 9.65936 3.23003 8.94053L1.26058 7.19977L1.1716 7.12183L1.23388 7.02079L2.99571 4.11374L3.058 4.0127L3.17367 4.05023L5.65624 4.86721C6.23462 4.40243 6.88121 4.03868 7.5812 3.78176L8.09432 1.25289L8.11805 1.13741H11.8849L11.9086 1.25289L12.4218 3.75577C13.1158 4.01848 13.7624 4.38222 14.3408 4.84122L16.8323 4.05312L16.945 4.01848L17.0043 4.11663L18.7661 7.02367L18.8284 7.1276L18.7365 7.20554L16.764 8.89146C16.8857 9.61028 16.8857 10.3378 16.764 11.0566L18.7335 12.7973L18.8225 12.8753L18.7631 12.9792Z" fill="#fff"/>
</svg>
