<svg width="13" height="24" viewBox="0 0 13 24" fill="none" xmlns="http://www.w3.org/2000/svg">
<g clip-path="url(#clip0_605_26890)">
<path d="M9.12076 13.921V13.4391H11.0389V12.4785H8.16016V13.921H9.12076Z" fill="#fff"/>
<path d="M0 0V3.38485V4.34545V5.30303V6.26364V17.7364V18.697V19.6576V20.6182V24H12.4788V20.6152V19.6545V18.697V17.7364V6.26364V5.30303V4.34242V3.38182V0H0ZM11.5212 23.0394H0.960606V20.6152H11.5212V23.0394ZM11.5212 19.6545H0.960606V18.697H11.5212V19.6545ZM11.5212 17.7364H0.960606V6.26364H11.5212V17.7364ZM11.5212 5.30303H0.960606V4.34242H11.5212V5.30303ZM0.960606 3.38485V0.960606H11.5212V3.38485H0.960606Z" fill="#fff"/>
</g>
<defs>
<clipPath id="clip0_605_26890">
<rect width="12.4788" height="24" fill="white"/>
</clipPath>
</defs>
</svg>
