<svg width="13" height="24" viewBox="0 0 13 24" fill="none" xmlns="http://www.w3.org/2000/svg">
<path d="M9.13073 13.4391H11.0428V12.4785H8.16406V13.4331V13.4361V14.3997H9.13376V13.4391H9.13073ZM8.64588 14.2664C8.45497 14.2664 8.2974 14.1118 8.2974 13.9179C8.2974 13.727 8.45194 13.5694 8.64588 13.5694C8.83679 13.5694 8.99437 13.724 8.99437 13.9179C8.99133 14.1118 8.83679 14.2664 8.64588 14.2664Z" fill="#fff"/>
<path d="M5.99556 6C6.54667 6 7 5.55752 7 5C7 4.45133 6.55556 4 5.99556 4C5.43556 4 5 4.44248 5 5C5 5.54867 5.44444 6 5.99556 6Z" fill="#fff"/>
<path d="M0 0V24H12.4788V0H0ZM11.5212 23.0394H0.960606V0.960606H11.5212V23.0394Z" fill="#fff"/>
</svg>
