<svg width="24" height="24" viewBox="0 0 24 24" fill="none" xmlns="http://www.w3.org/2000/svg">
<g clip-path="url(#clip0_605_26953)">
<path d="M24 12.4788V11.5182V0H23.0394V11.5212H0.960606V0H0V11.5212V12.4818V23.0424V24H24V23.0394V12.4788ZM23.0394 23.0394H0.960606V12.4788H23.0394V23.0394Z" fill="#fff"/>
<path d="M1.09093e-06 11.5212L1.00695e-06 12.4818L0 24L0.960606 24L0.960607 12.4788L23.0394 12.4788L23.0394 24L24 24L24 12.4788L24 11.5182L24 0.957575L24 0L2.09815e-06 -2.09815e-06L2.01417e-06 0.960604L1.09093e-06 11.5212ZM0.960608 0.960604L23.0394 0.960606L23.0394 11.5212L0.960607 11.5212L0.960608 0.960604Z" fill="#fff"/>
</g>
<defs>
<clipPath id="clip0_605_26953">
<rect width="24" height="24" fill="white"/>
</clipPath>
</defs>
</svg>
