<svg width="24" height="18" viewBox="0 0 24 18" fill="none" xmlns="http://www.w3.org/2000/svg">
<path d="M4.99046 17.9611V16.7664C4.99046 16.3085 4.71959 16.0098 4.25525 16.0098C4.02308 16.0098 3.77156 16.0894 3.59743 16.3483C3.462 16.1293 3.26852 16.0098 2.97831 16.0098C2.78483 16.0098 2.59135 16.0695 2.43657 16.2885V16.0496H2.03027V17.9611H2.43657V16.9058C2.43657 16.5673 2.6107 16.408 2.88157 16.408C3.15243 16.408 3.28787 16.5872 3.28787 16.9058V17.9611H3.69417V16.9058C3.69417 16.5673 3.88764 16.408 4.13916 16.408C4.41003 16.408 4.54546 16.5872 4.54546 16.9058V17.9611H4.99046ZM11.0076 16.0496H10.3497V15.4722H9.94344V16.0496H9.57584V16.4279H9.94344V17.304C9.94344 17.7421 10.1176 18.0009 10.5819 18.0009C10.756 18.0009 10.9495 17.9412 11.085 17.8616L10.9689 17.5031C10.8528 17.5828 10.7173 17.6027 10.6206 17.6027C10.4271 17.6027 10.3497 17.4832 10.3497 17.2841V16.4279H11.0076V16.0496ZM14.4514 16.0098C14.2193 16.0098 14.0645 16.1293 13.9677 16.2885V16.0496H13.5614V17.9611H13.9677V16.8859C13.9677 16.5673 14.1032 16.3881 14.3547 16.3881C14.4321 16.3881 14.5288 16.408 14.6062 16.4279L14.7223 16.0297C14.6449 16.0098 14.5288 16.0098 14.4514 16.0098ZM9.24693 16.2089C9.05345 16.0695 8.78259 16.0098 8.49237 16.0098C8.02803 16.0098 7.71847 16.2487 7.71847 16.627C7.71847 16.9456 7.95064 17.1248 8.35694 17.1846L8.55042 17.2045C8.76324 17.2443 8.87933 17.304 8.87933 17.4036C8.87933 17.543 8.72455 17.6425 8.45368 17.6425C8.18281 17.6425 7.96999 17.543 7.83455 17.4434L7.64108 17.762C7.8539 17.9213 8.14412 18.0009 8.43433 18.0009C8.97606 18.0009 9.28563 17.7421 9.28563 17.3837C9.28563 17.0452 9.03411 16.866 8.64715 16.8062L8.45368 16.7863C8.27955 16.7664 8.14412 16.7266 8.14412 16.6071C8.14412 16.4677 8.27955 16.3881 8.49237 16.3881C8.72455 16.3881 8.95672 16.4877 9.0728 16.5474L9.24693 16.2089ZM20.0429 16.0098C19.8107 16.0098 19.6559 16.1293 19.5592 16.2885V16.0496H19.1529V17.9611H19.5592V16.8859C19.5592 16.5673 19.6946 16.3881 19.9462 16.3881C20.0235 16.3881 20.1203 16.408 20.1977 16.4279L20.3138 16.0297C20.2364 16.0098 20.1203 16.0098 20.0429 16.0098ZM14.8577 17.0054C14.8577 17.5828 15.2447 18.0009 15.8445 18.0009C16.1153 18.0009 16.3088 17.9412 16.5023 17.7819L16.3088 17.4434C16.154 17.5629 15.9992 17.6226 15.8251 17.6226C15.4962 17.6226 15.264 17.3837 15.264 17.0054C15.264 16.647 15.4962 16.408 15.8251 16.3881C15.9992 16.3881 16.154 16.4478 16.3088 16.5673L16.5023 16.2288C16.3088 16.0695 16.1153 16.0098 15.8445 16.0098C15.2447 16.0098 14.8577 16.4279 14.8577 17.0054ZM18.6112 17.0054V16.0496H18.2049V16.2885C18.0694 16.1093 17.876 16.0098 17.6244 16.0098C17.1021 16.0098 16.6958 16.4279 16.6958 17.0054C16.6958 17.5828 17.1021 18.0009 17.6244 18.0009C17.8953 18.0009 18.0888 17.9014 18.2049 17.7222V17.9611H18.6112V17.0054ZM17.1214 17.0054C17.1214 16.6669 17.3342 16.3881 17.6825 16.3881C18.0114 16.3881 18.2436 16.647 18.2436 17.0054C18.2436 17.3439 18.0114 17.6226 17.6825 17.6226C17.3342 17.6027 17.1214 17.3439 17.1214 17.0054ZM12.2652 16.0098C11.7234 16.0098 11.3365 16.408 11.3365 17.0054C11.3365 17.6027 11.7234 18.0009 12.2845 18.0009C12.5554 18.0009 12.8262 17.9213 13.0391 17.7421L12.8456 17.4434C12.6908 17.5629 12.4973 17.6425 12.3039 17.6425C12.0523 17.6425 11.8008 17.5231 11.7428 17.1846H13.1165V17.0253C13.1358 16.408 12.7875 16.0098 12.2652 16.0098ZM12.2652 16.3682C12.5167 16.3682 12.6908 16.5275 12.7295 16.8262H11.7621C11.8008 16.5673 11.9749 16.3682 12.2652 16.3682ZM22.3453 17.0054V15.293H21.939V16.2885C21.8035 16.1093 21.6101 16.0098 21.3585 16.0098C20.8361 16.0098 20.4298 16.4279 20.4298 17.0054C20.4298 17.5828 20.8361 18.0009 21.3585 18.0009C21.6294 18.0009 21.8229 17.9014 21.939 17.7222V17.9611H22.3453V17.0054ZM20.8555 17.0054C20.8555 16.6669 21.0683 16.3881 21.4166 16.3881C21.7455 16.3881 21.9777 16.647 21.9777 17.0054C21.9777 17.3439 21.7455 17.6226 21.4166 17.6226C21.0683 17.6027 20.8555 17.3439 20.8555 17.0054ZM7.27347 17.0054V16.0496H6.86718V16.2885C6.73174 16.1093 6.53827 16.0098 6.28675 16.0098C5.76436 16.0098 5.35806 16.4279 5.35806 17.0054C5.35806 17.5828 5.76436 18.0009 6.28675 18.0009C6.55761 18.0009 6.75109 17.9014 6.86718 17.7222V17.9611H7.27347V17.0054ZM5.76436 17.0054C5.76436 16.6669 5.97719 16.3881 6.32544 16.3881C6.65435 16.3881 6.88652 16.647 6.88652 17.0054C6.88652 17.3439 6.65435 17.6226 6.32544 17.6226C5.97719 17.6027 5.76436 17.3439 5.76436 17.0054Z" fill="white"/>
<path d="M15.2058 1.5332H9.11133V12.8031H15.2058V1.5332Z" fill="#FF5F00"/>
<path d="M9.49836 7.16815C9.49836 4.87832 10.5431 2.84735 12.149 1.53319C10.9688 0.577434 9.47901 0 7.85381 0C4.00364 0 0.888672 3.20575 0.888672 7.16815C0.888672 11.1305 4.00364 14.3363 7.85381 14.3363C9.47901 14.3363 10.9688 13.7589 12.149 12.8031C10.5431 11.5089 9.49836 9.45797 9.49836 7.16815Z" fill="#EB001B"/>
<path d="M23.4283 7.16815C23.4283 11.1305 20.3133 14.3363 16.4631 14.3363C14.8379 14.3363 13.3482 13.7589 12.168 12.8031C13.7932 11.4889 14.8186 9.45797 14.8186 7.16815C14.8186 4.87832 13.7738 2.84735 12.168 1.53319C13.3482 0.577434 14.8379 0 16.4631 0C20.3133 0 23.4283 3.22567 23.4283 7.16815Z" fill="#F79E1B"/>
</svg>
