<svg width="41" height="40" viewBox="0 0 41 40" fill="none" xmlns="http://www.w3.org/2000/svg">
<path d="M15.5824 23.2029V22.3999H18.8593V20.7988H13.9414V23.2029H15.5824Z" fill="#414042"/>
<path d="M0 0V5.64141V7.24242V8.83838V10.4394V29.5606V31.1616V32.7626V34.3636V40H21.3179V34.3586V32.7576V31.1616V29.5606V10.4394V8.83838V7.23737V5.63636V0H0ZM19.6821 38.399H1.64104V34.3586H19.6821V38.399ZM19.6821 32.7576H1.64104V31.1616H19.6821V32.7576ZM19.6821 29.5606H1.64104V10.4394H19.6821V29.5606ZM19.6821 8.83838H1.64104V7.23737H19.6821V8.83838ZM1.64104 5.64141V1.60101H19.6821V5.64141H1.64104Z" fill="#414042"/>
<rect x="29" y="39" width="8" height="1" fill="#414042"/>
<path d="M32.5 20V40H33.5V20H32.5Z" fill="#414042"/>
<path d="M29 13H37L39 20H27L29 13Z" fill="#414042"/>
</svg>
