<svg width="40" height="40" viewBox="0 0 40 40" fill="none" xmlns="http://www.w3.org/2000/svg">
<path d="M29.2308 20.4007V19.7984H31.6884V18.5977H28V20.4007H29.2308Z" fill="#424255"/>
<path d="M7 3V7.23106V8.43182V9.62879V10.8295V25.1705V26.3712V27.572V28.7727V33H33.7268V28.7689V27.5682V26.3712V25.1705V10.8295V9.62879V8.42803V7.22727V3H7ZM32.5 31.7992H8.23078V28.7689H32.5V31.7992ZM32.5 27.5682H8.23078V26.3712H32.5V27.5682ZM32.5 25.1705H8.23078V10.8295H32.5V25.1705ZM32.5 9.62879H8.23078V8.42803H32.5V9.62879ZM8.23078 7.23106V4.20076H32.5V7.23106H8.23078Z" fill="#414042"/>
</svg>
