<svg width="40" height="40" viewBox="0 0 40 40" fill="none" xmlns="http://www.w3.org/2000/svg">
<path d="M13 2H3C2.73489 2.00033 2.48072 2.10579 2.29326 2.29326C2.10579 2.48072 2.00033 2.73489 2 3V13C2.00033 13.2651 2.10579 13.5193 2.29326 13.7067C2.48072 13.8942 2.73489 13.9997 3 14H13C13.2651 13.9997 13.5193 13.8942 13.7067 13.7067C13.8942 13.5193 13.9997 13.2651 14 13V3C13.9997 2.73489 13.8942 2.48072 13.7067 2.29326C13.5193 2.10579 13.2651 2.00033 13 2ZM3 13L13 3V13H3Z" fill="#414042"/>
<g clip-path="url(#clip0_605_23222)">
<path d="M33.5977 22.3998H36.8642V20.7988H31.9463V22.3897V22.3948V24.0008H33.6029V22.3998H33.5977ZM32.7694 23.7786C32.4433 23.7786 32.1741 23.521 32.1741 23.1978C32.1741 22.8796 32.4381 22.617 32.7694 22.617C33.0955 22.617 33.3647 22.8746 33.3647 23.1978C33.3595 23.521 33.0955 23.7786 32.7694 23.7786Z" fill="#414042"/>
<path d="M28.9956 9C29.5467 9 30 8.55752 30 8C30 7.45133 29.5556 7 28.9956 7C28.4356 7 28 7.44248 28 8C28 8.54867 28.4444 9 28.9956 9Z" fill="#414042"/>
<path d="M18 0V40H39.3179V0H18ZM37.6821 38.399H19.641V1.60101H37.6821V38.399Z" fill="#414042"/>
</g>
<defs>
<clipPath id="clip0_605_23222">
<rect width="21.3179" height="40" fill="white" transform="translate(18)"/>
</clipPath>
</defs>
</svg>
