<svg width="41" height="40" viewBox="0 0 41 40" fill="none" xmlns="http://www.w3.org/2000/svg">
<g clip-path="url(#clip0_605_23172)">
<path d="M32.5824 23.2029V22.3999H35.8593V20.7988H30.9414V23.2029H32.5824Z" fill="#414042"/>
<path d="M17 0V5.64141V7.24242V8.83838V10.4394V29.5606V31.1616V32.7626V34.3636V40H38.3179V34.3586V32.7576V31.1616V29.5606V10.4394V8.83838V7.23737V5.63636V0H17ZM36.6821 38.399H18.641V34.3586H36.6821V38.399ZM36.6821 32.7576H18.641V31.1616H36.6821V32.7576ZM36.6821 29.5606H18.641V10.4394H36.6821V29.5606ZM36.6821 8.83838H18.641V7.23737H36.6821V8.83838ZM18.641 5.64141V1.60101H36.6821V5.64141H18.641Z" fill="#414042"/>
<path d="M6 9.34601e-05V5.64151V7.24252V8.83848V10.4395V29.5607V31.1617V32.7627V34.3637V40.0001L18.4999 40V34.3586V32.7576V31.1616V29.5606V10.4394V8.83838V7.23737V5.63636V0L6 9.34601e-05ZM16.8641 38.399L7.64104 38.3991V34.3587L16.8641 34.3586V38.399ZM16.8641 32.7576L7.64104 32.7577V31.1617L16.8641 31.1616V32.7576ZM16.8641 29.5606L7.64104 29.5607V10.4395L16.8641 10.4394V29.5606ZM16.8641 8.83838L7.64104 8.83848V7.23747L16.8641 7.23737V8.83838ZM7.64104 5.64151V1.6011L16.8641 1.60101V5.64141L7.64104 5.64151Z" fill="#414042"/>
</g>
<defs>
<clipPath id="clip0_605_23172">
<rect width="41" height="40" fill="white"/>
</clipPath>
</defs>
</svg>
