<svg width="39" height="12" viewBox="0 0 39 12" fill="none" xmlns="http://www.w3.org/2000/svg">
<path d="M19.9263 3.84057C19.9049 5.51007 21.4338 6.44178 22.5855 6.99568C23.7689 7.56407 24.1664 7.9285 24.1619 8.43671C24.1528 9.21462 23.2179 9.55788 22.3428 9.57125C20.8161 9.59466 19.9286 9.16446 19.2229 8.83904L18.6729 11.3789C19.3809 11.701 20.6919 11.9819 22.0514 11.9941C25.2425 11.9941 27.3303 10.4394 27.3416 8.02881C27.3541 4.96955 23.0542 4.80014 23.0835 3.43267C23.0937 3.01808 23.4945 2.57563 24.373 2.46307C24.8078 2.40623 26.0081 2.36277 27.3687 2.98131L27.9028 0.523869C27.1711 0.260851 26.2305 0.00897694 25.0596 0.00897694C22.056 0.00897694 19.9433 1.58486 19.9263 3.84057ZM33.035 0.220729C32.4523 0.220729 31.9611 0.556189 31.742 1.07108L27.1836 11.8136H30.3724L31.007 10.0828H34.9037L35.2719 11.8136H38.0824L35.6298 0.220729H33.035ZM33.481 3.35243L34.4013 7.70561H31.8809L33.481 3.35243ZM16.06 0.220729L13.5465 11.8136H16.5851L19.0975 0.220729H16.06ZM11.5648 0.220729L8.40195 8.11128L7.12259 1.40208C6.97241 0.653149 6.3796 0.220729 5.72129 0.220729H0.550783L0.478516 0.557302C1.53994 0.784657 2.7459 1.15132 3.47648 1.54362C3.92364 1.78324 4.05123 1.99276 4.19803 2.56226L6.62124 11.8136H9.83262L14.7558 0.220729H11.5648Z" fill="white"/>
</svg>
